<?xml version="1.0" encoding="utf-8"?>
<!-- Generator: Adobe Illustrator 23.0.2, SVG Export Plug-In . SVG Version: 6.00 Build 0)  -->
<svg version="1.1" id="Laag_1" xmlns="http://www.w3.org/2000/svg" xmlns:xlink="http://www.w3.org/1999/xlink" x="0px" y="0px"
	 viewBox="0 0 43.7 43.3" style="enable-background:new 0 0 43.7 43.3;" xml:space="preserve">
<style type="text/css">
	
		.st0{clip-path:url(#SVGID_2_);fill:#FFFFFF;stroke:#29235C;stroke-width:1.578;stroke-linecap:round;stroke-linejoin:round;stroke-miterlimit:10;}
	.st1{clip-path:url(#SVGID_4_);fill:#29235C;}
	.st2{fill:#29235C;}
	.st3{clip-path:url(#SVGID_6_);fill:#29235C;}
</style>
<g>
	<defs>
		<rect id="SVGID_1_" x="0.6" y="0.5" width="42.7" height="42.7"/>
	</defs>
	<clipPath id="SVGID_2_">
		<use xlink:href="#SVGID_1_"  style="overflow:visible;"/>
	</clipPath>
	<path class="st0" d="M1.4,33.7c0,0,10.6,0.2,21.1-1.5c8.8-1.4,15.5-3.1,20-4.8 M42.5,39.8c0,1.4-1.2,2.6-2.6,2.6H4
		c-1.4,0-2.6-1.2-2.6-2.6v-36c0-1.4,1.2-2.6,2.6-2.6h35.9c1.4,0,2.6,1.2,2.6,2.6V39.8z"/>
</g>
<g>
	<g>
		<defs>
			<rect id="SVGID_3_" x="0.6" y="0.5" width="42.7" height="42.7"/>
		</defs>
		<clipPath id="SVGID_4_">
			<use xlink:href="#SVGID_3_"  style="overflow:visible;"/>
		</clipPath>
		<path class="st1" d="M19.6,16.1c0,2.1-1.2,2.5-3,2.5h-0.8c-1.7,0-2.9-0.4-3-2.4v-1.9c0-2,1.2-2.4,3-2.4h0.8c1.7,0,3,0.4,3,2.5
			V16.1z M16.2,10.6c-1.3,0-2.5,0.2-3.4,0.6V7h-1.5v7.2v1.3v0.6c0,2.9,2,3.6,4.8,3.6s4.8-0.7,4.8-3.6v-1.9
			C21.1,11.3,19,10.6,16.2,10.6"/>
	</g>
</g>
<rect x="35.2" y="7" class="st2" width="1.5" height="12.6"/>
<g>
	<defs>
		<rect id="SVGID_5_" x="0.6" y="0.5" width="42.7" height="42.7"/>
	</defs>
	<clipPath id="SVGID_6_">
		<use xlink:href="#SVGID_5_"  style="overflow:visible;"/>
	</clipPath>
	<path class="st3" d="M31.3,16.1c0,2.1-1.2,2.5-3,2.5h-0.8c-1.7,0-3-0.4-3-2.5v-1.8c0-2.1,1.2-2.5,3-2.5h0.8c1.7,0,3,0.4,3,2.5V16.1
		z M27.9,10.6c-2.8,0-4.9,0.7-4.9,3.6v1.9c0,2.9,2,3.6,4.9,3.6c2.8,0,4.8-0.7,4.8-3.6v-1.9C32.8,11.3,30.7,10.6,27.9,10.6"/>
</g>
</svg>
