<?xml version="1.0" encoding="utf-8"?>
<!-- Generator: Adobe Illustrator 23.0.2, SVG Export Plug-In . SVG Version: 6.00 Build 0)  -->
<svg version="1.1" id="Layer_1" xmlns="http://www.w3.org/2000/svg" xmlns:xlink="http://www.w3.org/1999/xlink" x="0px" y="0px"
	 viewBox="0 0 131.7 98" style="enable-background:new 0 0 131.7 98;" xml:space="preserve">
<style type="text/css">
	.st0{fill:#1194D2;}
</style>
<path class="st0" d="M70.3,98l-3.4-11.3h-2.1L61.3,98l-2.9-0.9L62,85.3l-3.6-6.6c-0.3-0.6-0.2-1.4,0.3-1.8l4.9-4.5l-8.7-8l-14.1,9.2
	c-0.9,9.3-2.1,22.9-2.1,23.9h-3c0-1.4,1.6-18.6,2.1-23.7l-8.5-3.6l-6.6,4.6L21,72.4l7.2-5.1l0.9,1.2l0.6-1.4l9.5,4l15.2-9.9l0.8,1.3
	l1-1.1l9.8,9l9.8-9l1,1.1l0.8-1.3l15.1,9.9l9.5-4l0.6,1.4l0.9-1.2l6.4,4.5l6.4-4.5l0.9,1.2l0.6-1.4l10.6,4.4
	c0.5,0.2,0.9,0.7,0.9,1.2c0.4,4,2.5,23.8,2.5,24.8h-3h1.5l-1.5,0c0-0.9-1.4-14.3-2.4-23.6l-9-3.8l-5.9,4.2v13.9h-3V74.4l-5.9-4.2
	l-8.5,3.6c0.5,5.1,2.1,22.4,2.1,23.7h-3c0-1-1.2-14.6-2.1-23.9l-14.1-9.2l-8.7,8l4.9,4.5c0.5,0.5,0.6,1.2,0.3,1.8l-3.6,6.6l3.6,11.8
	L70.3,98z M64.6,83.6h2.6l2.9-5.3l-4.2-3.9l-4.2,3.9L64.6,83.6z M3,97.6l-3,0c0-1,2.1-20.8,2.5-24.8c0.1-0.5,0.4-1,0.9-1.2L14,67.1
	l1.2,2.8L5.4,74C4.4,83.3,3,96.7,3,97.6z M85,89.8h-8.4v-3H85V89.8z M109.9,64.9c-5.1,0-9.2-4.9-9.2-10.9s4.1-10.9,9.2-10.9
	S119,48,119,54S114.9,64.9,109.9,64.9z M109.9,46c-3.4,0-6.2,3.6-6.2,7.9s2.8,7.9,6.2,7.9s6.2-3.6,6.2-7.9S113.3,46,109.9,46z
	 M65.8,60.2c-6.4,0-11.6-6.2-11.6-13.9c0-7.7,5.2-13.9,11.6-13.9s11.6,6.2,11.6,13.9C77.4,54,72.2,60.2,65.8,60.2z M65.8,35.4
	c-4.7,0-8.6,4.9-8.6,10.9c0,6,3.9,10.9,8.6,10.9s8.6-4.9,8.6-10.9C74.4,40.3,70.6,35.4,65.8,35.4z M90.8,23.8L88,22.6l9.2-20.9
	l2.7,1.2L90.8,23.8z M39.9,23.8L30.7,2.9l2.7-1.2l9.2,20.9L39.9,23.8z M66.3,21.2h-3V0h3V21.2z"/>
<path class="st0" d="M23.3,88.3h-3v-8.7c0-3.1-1.6-6.3-3-7.3l-3.6-2.6l1.7-2.5l3.6,2.6c2.4,1.7,4.3,6,4.3,9.8V88.3z M21.8,64.9
	c-5.1,0-9.2-4.9-9.2-10.9S16.8,43,21.8,43S31,48,31,54S26.9,64.9,21.8,64.9z M21.8,46c-3.4,0-6.2,3.6-6.2,7.9s2.8,7.9,6.2,7.9
	S28,58.3,28,54S25.2,46,21.8,46z"/>
</svg>
