<?xml version="1.0" encoding="utf-8"?>
<!-- Generator: Adobe Illustrator 23.0.2, SVG Export Plug-In . SVG Version: 6.00 Build 0)  -->
<svg version="1.1" id="Layer_1" xmlns="http://www.w3.org/2000/svg" xmlns:xlink="http://www.w3.org/1999/xlink" x="0px" y="0px"
	 viewBox="0 0 53.3 66.3" style="enable-background:new 0 0 53.3 66.3;" xml:space="preserve">
<style type="text/css">
	.st0{fill:#28255C;}
</style>
<path class="st0" d="M1.5,40.5C0.7,40.5,0,39.8,0,39V24c-0.2-2.5,0.5-6.9,3.9-8.8c0.2-0.5,0.7-0.8,1.2-0.9c1.2-0.1,1.9-0.1,2-0.1
	c0.8,0,1.4,0.7,1.4,1.4c0,0.8-0.5,1.5-1.3,1.5C2.6,17.8,3,23.6,3,23.8c0,0,0,0.1,0,0.1v15C3,39.8,2.4,40.5,1.5,40.5z"/>
<path class="st0" d="M38.7,62.6c-0.9,0-1.7-0.2-2.5-0.6c-0.8,0.4-1.6,0.6-2.5,0.6c-2.9,0-5.3-2.4-5.3-5.3V24c0,0,0-0.1,0-0.1
	c0-0.2,0.4-6.1-4.3-6.6c-0.8-0.1-1.3-0.8-1.3-1.5c0-0.8,0.7-1.4,1.4-1.4c0.1,0,0.8,0,2,0.1c7.5,0.8,13.6,6.4,15.2,13.9
	c1.3,6.3,5,21.8,11.3,28.7c0.3,0.3,0.4,0.8,0.4,1.2c-0.1,0.4-0.3,0.8-0.6,1.1c-0.2,0.2-5.1,3.4-9.9,1.6
	C41.8,61.9,40.3,62.6,38.7,62.6z M36.3,58.7c0.4,0,0.7,0.1,1,0.4c0.3,0.3,0.8,0.6,1.5,0.6c0.9,0,1.7-0.5,2.1-1.4
	c0.2-0.4,0.5-0.7,0.9-0.8c0.4-0.1,0.9-0.1,1.2,0.1c2.3,1.3,4.9,0.6,6.5-0.1c-5.9-7.6-9.3-21-10.8-28.7c-0.9-4.7-4-8.4-8-10.3
	c0.9,1.9,1.1,4,1,5.5v33.3c0,1.2,1,2.3,2.3,2.3c0.7,0,1.2-0.3,1.5-0.6C35.6,58.8,35.9,58.7,36.3,58.7z"/>
<path class="st0" d="M23.7,66.3c-0.8,0-1.5-0.7-1.5-1.5V39.2H9.4v25.6c0,0.8-0.7,1.5-1.5,1.5s-1.5-0.7-1.5-1.5V37.7
	c0-0.8,0.7-1.5,1.5-1.5h15.9c0.8,0,1.5,0.7,1.5,1.5v27.1C25.2,65.6,24.6,66.3,23.7,66.3z"/>
<path class="st0" d="M15.8,66.3c-0.8,0-1.5-0.7-1.5-1.5V37.7c0-0.8,0.7-1.5,1.5-1.5s1.5,0.7,1.5,1.5v27.1
	C17.3,65.6,16.6,66.3,15.8,66.3z"/>
<path class="st0" d="M15.8,12.9c-3.6,0-6.5-2.9-6.5-6.5S12.2,0,15.8,0c3.6,0,6.5,2.9,6.5,6.5S19.4,12.9,15.8,12.9z M15.8,3
	c-1.9,0-3.5,1.6-3.5,3.5s1.6,3.5,3.5,3.5c1.9,0,3.5-1.6,3.5-3.5S17.7,3,15.8,3z"/>
<path class="st0" d="M15.8,32.3c-0.8,0-1.5-0.7-1.5-1.5V15.7c0-0.8,0.7-1.5,1.5-1.5s1.5,0.7,1.5,1.5v15.1
	C17.3,31.6,16.6,32.3,15.8,32.3z"/>
<path class="st0" d="M23.7,39.2H7.9c-0.8,0-1.5-0.7-1.5-1.5V25.8c0-0.8,0.7-1.5,1.5-1.5s1.5,0.7,1.5,1.5v10.4h12.9V25.8
	c0-0.8,0.7-1.5,1.5-1.5s1.5,0.7,1.5,1.5v11.9C25.2,38.5,24.6,39.2,23.7,39.2z"/>
<path class="st0" d="M1.5,39.2c-0.8,0-1.5-0.7-1.5-1.5V22.3c0-4.9,2.9-8.1,7.1-8.1h17.3c0.8,0,1.5,0.7,1.5,1.5s-0.7,1.5-1.5,1.5H7.1
	c-3,0-4.1,2.6-4.1,5.1v15.3C3,38.5,2.4,39.2,1.5,39.2z"/>
<path class="st0" d="M30.1,39.2c-0.8,0-1.5-0.7-1.5-1.5V22.3c0-2.5-1.1-5.1-4.1-5.1c-0.8,0-1.5-0.7-1.5-1.5s0.7-1.5,1.5-1.5
	c4.2,0,7.1,3.3,7.1,8.1v15.3C31.6,38.5,30.9,39.2,30.1,39.2z"/>
</svg>
