<?xml version="1.0" encoding="utf-8"?>
<!-- Generator: Adobe Illustrator 23.0.2, SVG Export Plug-In . SVG Version: 6.00 Build 0)  -->
<svg version="1.1" id="Layer_1" xmlns="http://www.w3.org/2000/svg" xmlns:xlink="http://www.w3.org/1999/xlink" x="0px" y="0px"
	 viewBox="0 0 103.4 127.7" style="enable-background:new 0 0 103.4 127.7;" xml:space="preserve">
<style type="text/css">
	.st0{fill:#CC2027;}
</style>
<path class="st0" d="M89.3,127.7h-3V89.4h3V127.7z M43.1,127.7h-3v-13.4H23.7c-7.1,0-12.8-5.7-12.8-12.7V86.7H0l14.7-25.1
	c0-0.5,0-1,0-1.5c0-15.7,8.7-30.2,22.6-37.8l1.4,2.6c-13,7-21.1,20.5-21.1,35.1c0,0.6,0,1.2,0,1.8l0,0.4L5.2,83.7h8.6v17.9
	c0,5.3,4.4,9.7,9.8,9.7h19.4V127.7z M90,64.2H59.5l-0.1-1.4c-0.2-3.2-1-5.8-2.1-7.3c-10.9-13.8-11.2-27-11.2-27.2
	C46.2,12.7,59,0,74.8,0c15.8,0,28.6,12.7,28.6,28.3c0,0.1-0.3,13.3-11.2,27.2c-1.4,1.9-1.9,5-2.1,7.3L90,64.2z M62.3,61.2h24.9
	c0.3-2.5,1-5.4,2.6-7.5c10.3-13.1,10.6-25.2,10.6-25.4c0-14-11.5-25.3-25.6-25.3C60.7,3,49.2,14.4,49.2,28.3
	c0,0.1,0.3,12.3,10.5,25.3C61.3,55.8,62,58.7,62.3,61.2z"/>
<path class="st0" d="M82.5,83.4H67.1v-3h15.3V83.4z M93.8,74h-38v-3h38V74z M62.8,70.5h-3v-6h-3.9v-3h11.9l-3.8-28.2l3-0.4l0.2,1.3
	l1.5,1l2.3-1.5h1.6l2.3,1.5l2.3-1.5h1.6l2.3,1.5l1.6-1l0.2-1.3l3,0.4l-3.8,28.2h11.9v3h-31V70.5z M70.8,61.5h8.1L82,38.2l-0.2,0.1
	h-1.6l-2.3-1.5l-2.3,1.5l-1.6,0l-2.3-1.5l-2.3,1.5l-1.6,0l-0.2-0.1L70.8,61.5z"/>
</svg>
