<?xml version="1.0" encoding="utf-8"?>
<!-- Generator: Adobe Illustrator 23.0.2, SVG Export Plug-In . SVG Version: 6.00 Build 0)  -->
<svg version="1.1" id="Layer_1" xmlns="http://www.w3.org/2000/svg" xmlns:xlink="http://www.w3.org/1999/xlink" x="0px" y="0px"
	 viewBox="0 0 197 142.9" style="enable-background:new 0 0 197 142.9;" xml:space="preserve">
<style type="text/css">
	.st0{fill:#28255C;}
</style>
<path class="st0" d="M116.5,142.9c-0.8,0-1.5-0.7-1.5-1.5V53.8c0-0.8,0.7-1.5,1.5-1.5s1.5,0.7,1.5,1.5v87.7
	C118,142.3,117.3,142.9,116.5,142.9z"/>
<path class="st0" d="M88.9,96.7c-5.6,0-10.2-4.5-10.2-10c0-0.8,0.7-1.5,1.5-1.5s1.5,0.7,1.5,1.5c0,3.8,3.2,7,7.2,7
	c0.8,0,1.5,0.7,1.5,1.5S89.7,96.7,88.9,96.7z"/>
<path class="st0" d="M104.5,142.4c-0.8,0-1.5-0.7-1.5-1.5v-40.7c0-0.8,0.7-1.5,1.5-1.5s1.5,0.7,1.5,1.5v40.7
	C106,141.7,105.3,142.4,104.5,142.4z"/>
<path class="st0" d="M148.9,45.2c-0.8,0-1.5-0.7-1.5-1.5V32.1c0-0.8,0.7-1.5,1.5-1.5s1.5,0.7,1.5,1.5v11.5
	C150.4,44.5,149.7,45.2,148.9,45.2z"/>
<path class="st0" d="M148.9,54.8h-31.2l-1.4-0.1c-0.8,0-1.5-0.7-1.4-1.6c0-0.8,0.7-1.5,1.6-1.4l1.4,0.1l31.2,0
	c3.5,0,6.5-2.8,7.2-6.3l-61.6-0.2c-0.8,0-1.5-0.7-1.5-1.5c0-0.8,0.7-1.5,1.5-1.5c0,0,0,0,0,0l63.2,0.3c0.8,0,1.5,0.7,1.5,1.5
	C159.3,50,154.6,54.8,148.9,54.8z"/>
<path class="st0" d="M179.6,38c-5.6,0-8.6-2.5-11.3-4.7c-2.5-2.1-4.6-3.8-8.7-3.8c-6.5,0-9.7,3.7-9.7,3.7c-0.4,0.5-1.1,0.7-1.7,0.4
	c-0.6-0.2-1-0.8-1-1.4V5.7c0-0.4,0.1-0.7,0.4-1c0.2-0.2,4.1-4.7,12-4.7c5.2,0,8.1,2.4,10.6,4.5c2.5,2.1,4.8,4,9.3,4
	c9.4,0,12.6-5.1,12.6-5.2c0.3-0.6,1-0.9,1.7-0.7c0.7,0.2,1.1,0.8,1.1,1.4v26.4c0,0.3-0.1,0.5-0.2,0.8C194.6,31.6,190.8,38,179.6,38z
	 M159.7,26.4c5.2,0,8.1,2.4,10.6,4.5c2.5,2.1,4.8,4,9.3,4c8.1,0,11.5-3.8,12.4-4.9V7.8c-2.3,1.8-6.3,3.7-12.4,3.7
	c-5.6,0-8.6-2.5-11.3-4.7c-2.5-2.1-4.6-3.8-8.7-3.8c-5.3,0-8.3,2.4-9.3,3.3V29C152.3,27.7,155.5,26.4,159.7,26.4z M193.5,30.5
	L193.5,30.5L193.5,30.5z"/>
<path class="st0" d="M88.1,108.6H1.5c-0.6,0-1.1-0.3-1.4-0.9s-0.1-1.2,0.3-1.6l45.1-49.7c0.3-0.3,0.6-0.5,1-0.5
	c0.4,0,0.8,0.1,1.1,0.4l24.9,23.2l6.5-6.9c0.6-0.6,1.5-0.6,2.1-0.1c0.6,0.6,0.6,1.5,0.1,2.1l-7.5,8c-0.6,0.6-1.5,0.6-2.1,0.1
	L46.7,59.5l-41.8,46h83.2c0.8,0,1.5,0.7,1.5,1.5S89,108.6,88.1,108.6z"/>
<path class="st0" d="M195.5,108.6h-77.1c-0.8,0-1.5-0.7-1.5-1.5s0.7-1.5,1.5-1.5h74.1l-39.1-52.3c-0.5-0.7-0.4-1.6,0.3-2.1
	c0.7-0.5,1.6-0.4,2.1,0.3l40.9,54.7c0.3,0.5,0.4,1.1,0.1,1.6C196.6,108.2,196,108.6,195.5,108.6z"/>
<path class="st0" d="M112.1,45c-0.4,0-0.7-0.1-1-0.4c-0.6-0.6-0.7-1.5-0.1-2.1l19.5-21.3c0.3-0.3,0.7-0.5,1.2-0.5
	c0.4,0,0.9,0.2,1.1,0.6L148.4,42c0.5,0.7,0.4,1.6-0.3,2.1c-0.7,0.5-1.6,0.4-2.1-0.3l-14.5-19.2l-18.3,20
	C112.9,44.8,112.5,45,112.1,45z"/>
<path class="st0" d="M148.9,141.9c-0.8,0-1.5-0.7-1.5-1.5V54.6c0-0.8,0.7-1.5,1.5-1.5s1.5,0.7,1.5,1.5v85.8
	C150.4,141.2,149.7,141.9,148.9,141.9z"/>
<path class="st0" d="M102.3,37.2c-3.7,0-6.7-1.2-8.9-3.5C91,31,89.8,27.1,89.8,22c0-13.7,8.7-15.2,12.5-15.2l0,0
	c3.7,0,12.5,1.5,12.5,15.2C114.8,35.7,106,37.2,102.3,37.2C102.3,37.2,102.3,37.2,102.3,37.2z M102.3,9.8c-6.3,0-9.5,4.1-9.5,12.2
	c0,4.3,0.9,7.6,2.8,9.6c1.6,1.7,3.8,2.6,6.6,2.6c0,0,0,0,0,0c6.3,0,9.5-4.1,9.5-12.2C111.8,13.9,108.6,9.8,102.3,9.8L102.3,9.8z"/>
<path class="st0" d="M90.4,142.9c-0.8,0-1.5-0.7-1.5-1.5V55.9c0-0.8,0.7-1.5,1.5-1.5s1.5,0.7,1.5,1.5v85.5
	C91.9,142.3,91.3,142.9,90.4,142.9z"/>
<path class="st0" d="M42.2,82.2c0,0-0.1,0-0.1,0l-15.4-1.4c-0.8-0.1-1.4-0.8-1.4-1.6c0.1-0.8,0.8-1.4,1.6-1.4l14.6,1.4l7.4-8.7
	c0.4-0.4,1-0.6,1.5-0.5l14.3,3.6c0.8,0.2,1.3,1,1.1,1.8c-0.2,0.8-1,1.3-1.8,1.1L50.7,73l-7.3,8.6C43.1,82,42.7,82.2,42.2,82.2z"/>
<path class="st0" d="M80.2,88.3c-0.8,0-1.5-0.7-1.5-1.5V57.5c0-8.4,6.9-15.3,15.3-15.3c0.8,0,1.5,0.7,1.5,1.5c0,0.8-0.7,1.5-1.5,1.5
	c-6.8,0-12.3,5.5-12.3,12.3v29.2C81.7,87.6,81.1,88.3,80.2,88.3z"/>
</svg>
