<?xml version="1.0" encoding="utf-8"?>
<!-- Generator: Adobe Illustrator 23.0.2, SVG Export Plug-In . SVG Version: 6.00 Build 0)  -->
<svg version="1.1" id="Layer_1" xmlns="http://www.w3.org/2000/svg" xmlns:xlink="http://www.w3.org/1999/xlink" x="0px" y="0px"
	 viewBox="0 0 204 149" style="enable-background:new 0 0 204 149;" xml:space="preserve">
<style type="text/css">
	.st0{fill:#28255C;}
</style>
<path class="st0" d="M204,148.1h-3v-27c0-4.7-2.2-10.1-8.4-10.1h-13.8v13.5h-3V111h-13.8c-6.2,0-8.4,5.5-8.4,10.1v14.9h-3v-14.9
	c0-4.7-2.2-10.1-8.4-10.1h-13.8v13.5h-3V111h-13.8c-6.2,0-8.4,5.5-8.4,10.1v14.9h-3v-14.9c0-4.7-2.2-10.1-8.4-10.1H78.4v13.5h-3V111
	H61.6c-6.2,0-8.4,5.5-8.4,10.1v14.9h-3v-14.9c0-4.7-2.2-10.1-8.4-10.1H28.1v13.5h-3V111H11.4c-6.2,0-8.4,5.5-8.4,10.1v27H0v-27
	c0-7.9,4.6-13.1,11.4-13.1h30.5c4.5,0,8,2.3,9.9,6.1c1.9-3.8,5.4-6.1,9.9-6.1h30.5c4.5,0,8,2.3,9.9,6.1c1.9-3.8,5.4-6.1,9.9-6.1
	h30.5c4.5,0,8,2.3,9.9,6.1c1.9-3.8,5.4-6.1,9.9-6.1h30.5c6.8,0,11.4,5.3,11.4,13.1V148.1z M192.8,148.1h-3v-20.9h3V148.1z
	 M164.9,148.1h-3v-20.9h3V148.1z M142.6,148.1h-3v-20.9h3V148.1z M114.6,148.1h-3v-20.9h3V148.1z M92.3,148.1h-3v-20.9h3V148.1z
	 M64.4,148.1h-3v-20.9h3V148.1z M42.1,148.1h-3v-20.9h3V148.1z M14.1,148.1h-3v-20.9h3V148.1z M177.4,103.5
	c-5.6,0-10.2-4.6-10.2-10.2S171.7,83,177.4,83s10.2,4.6,10.2,10.2S183,103.5,177.4,103.5z M177.4,86c-4,0-7.2,3.2-7.2,7.2
	s3.2,7.2,7.2,7.2c4,0,7.2-3.2,7.2-7.2S181.3,86,177.4,86z M127.1,103.5c-5.6,0-10.2-4.6-10.2-10.2S121.5,83,127.1,83
	c5.6,0,10.2,4.6,10.2,10.2S132.8,103.5,127.1,103.5z M127.1,86c-4,0-7.2,3.2-7.2,7.2s3.2,7.2,7.2,7.2c4,0,7.2-3.2,7.2-7.2
	S131.1,86,127.1,86z M76.9,103.5c-5.6,0-10.2-4.6-10.2-10.2S71.2,83,76.9,83c5.6,0,10.2,4.6,10.2,10.2S82.5,103.5,76.9,103.5z
	 M76.9,86c-4,0-7.2,3.2-7.2,7.2s3.2,7.2,7.2,7.2s7.2-3.2,7.2-7.2S80.9,86,76.9,86z M26.6,103.5c-5.6,0-10.2-4.6-10.2-10.2
	S21,83,26.6,83c5.6,0,10.2,4.6,10.2,10.2S32.3,103.5,26.6,103.5z M26.6,86c-4,0-7.2,3.2-7.2,7.2s3.2,7.2,7.2,7.2
	c4,0,7.2-3.2,7.2-7.2S30.6,86,26.6,86z"/>
<path class="st0" d="M191.3,149H12.6c-0.8,0-1.5-0.7-1.5-1.5s0.7-1.5,1.5-1.5h178.7c0.8,0,1.5,0.7,1.5,1.5S192.2,149,191.3,149z
	 M107.6,76.2c-0.8,0-1.5-0.7-1.5-1.5v-8.1H101v8.1c0,0.8-0.7,1.5-1.5,1.5S98,75.6,98,74.7v-8.1H49.6V12.3c-2.8-0.1-5.1-2.9-5.1-6.2
	c0-3.4,2.4-6.2,5.4-6.2h107.3c3,0,5.4,2.8,5.4,6.2c0,3.3-2.3,6-5.1,6.2v54.2h-48.3v8.1C109.1,75.6,108.4,76.2,107.6,76.2z
	 M107.6,63.6h46.8V12.3H52.6v51.2H107.6z M49.9,3c-1.3,0-2.4,1.5-2.4,3.2c0,1.7,1.1,3.2,2.4,3.2h107.3c1.3,0,2.4-1.5,2.4-3.2
	c0-1.7-1.1-3.2-2.4-3.2H49.9z M69.3,50.3c-0.5,0-0.9-0.2-1.2-0.6c-0.5-0.7-0.4-1.6,0.3-2.1l19.8-15.2l8.9,9l15.1-11.8l7.4,7.7
	l17.1-12.8c0.7-0.5,1.6-0.4,2.1,0.3c0.5,0.7,0.4,1.6-0.3,2.1l-19.2,14.4l-7.4-7.7L96.9,45.5L88,36.4L70.3,50
	C70,50.2,69.7,50.3,69.3,50.3z"/>
</svg>
