<?xml version="1.0" encoding="utf-8"?>
<!-- Generator: Adobe Illustrator 23.0.2, SVG Export Plug-In . SVG Version: 6.00 Build 0)  -->
<svg version="1.1" id="Layer_1" xmlns="http://www.w3.org/2000/svg" xmlns:xlink="http://www.w3.org/1999/xlink" x="0px" y="0px"
	 viewBox="0 0 66.4 75.8" style="enable-background:new 0 0 66.4 75.8;" xml:space="preserve">
<style type="text/css">
	.st0{fill:#28255C;}
</style>
<path class="st0" d="M51.4,27.2c-0.6,0-1.1-0.3-1.4-0.9l-5.4-11.8c-0.3-0.8,0-1.6,0.7-2c0.8-0.3,1.6,0,2,0.7l5.4,11.8
	c0.3,0.8,0,1.6-0.7,2C51.8,27.1,51.6,27.2,51.4,27.2z"/>
<path class="st0" d="M55.8,38.8c-0.4,0-0.8-0.1-1.1-0.4l-3.6-3.6c-0.6-0.6-0.6-1.5,0-2.1c0.6-0.6,1.5-0.6,2.1,0l3.6,3.6
	c0.6,0.6,0.6,1.5,0,2.1C56.6,38.7,56.2,38.8,55.8,38.8z"/>
<path class="st0" d="M52.3,38.8c-0.4,0-0.8-0.1-1.1-0.4c-0.6-0.6-0.6-1.5,0-2.1l3.6-3.6c0.6-0.6,1.5-0.6,2.1,0
	c0.6,0.6,0.6,1.5,0,2.1l-3.6,3.6C53,38.7,52.6,38.8,52.3,38.8z"/>
<path class="st0" d="M49.4,6.6c-0.4,0-0.8-0.1-1.1-0.4l-3.6-3.6c-0.6-0.6-0.6-1.5,0-2.1c0.6-0.6,1.5-0.6,2.1,0L50.4,4
	c0.6,0.6,0.6,1.5,0,2.1C50.1,6.4,49.8,6.6,49.4,6.6z"/>
<path class="st0" d="M45.8,6.6c-0.4,0-0.8-0.1-1.1-0.4c-0.6-0.6-0.6-1.5,0-2.1l3.6-3.6c0.6-0.6,1.5-0.6,2.1,0C51,1,51,2,50.4,2.6
	l-3.6,3.6C46.6,6.4,46.2,6.6,45.8,6.6z"/>
<path class="st0" d="M42.2,11.9c-0.4,0-0.8-0.1-1.1-0.4l-3.6-3.6c-0.6-0.6-0.6-1.5,0-2.1c0.6-0.6,1.5-0.6,2.1,0l3.6,3.6
	c0.6,0.6,0.6,1.5,0,2.1C43,11.8,42.6,11.9,42.2,11.9z"/>
<path class="st0" d="M38.7,11.9c-0.4,0-0.8-0.1-1.1-0.4c-0.6-0.6-0.6-1.5,0-2.1l3.6-3.6c0.6-0.6,1.5-0.6,2.1,0
	c0.6,0.6,0.6,1.5,0,2.1l-3.6,3.6C39.4,11.8,39.1,11.9,38.7,11.9z"/>
<path class="st0" d="M33.4,72.3c-0.8,0-1.5-0.7-1.5-1.5l-0.1-18.7c0-0.8,0.7-1.5,1.5-1.5c0,0,0,0,0,0c0.8,0,1.5,0.7,1.5,1.5
	l0.1,18.7C34.9,71.7,34.3,72.3,33.4,72.3C33.4,72.3,33.4,72.3,33.4,72.3z"/>
<path class="st0" d="M41.7,53.6H25.1c-0.8,0-1.5-0.7-1.5-1.5s0.7-1.5,1.5-1.5h16.6c0.8,0,1.5,0.7,1.5,1.5S42.5,53.6,41.7,53.6z"/>
<path class="st0" d="M21.4,75.8c-0.1,0-0.3,0-0.4-0.1c-0.8-0.2-1.2-1.1-1-1.9l8.3-26.6c0.2-0.6,0.8-1.1,1.4-1.1h7.7
	c0.7,0,1.2,0.4,1.4,1.1l8.3,26.6c0.2,0.8-0.2,1.6-1,1.9c-0.8,0.3-1.6-0.2-1.9-1l-8-25.5h-5.5l-8,25.5C22.6,75.3,22,75.8,21.4,75.8z"
	/>
<path class="st0" d="M33.5,49.2c-0.8,0-1.5-0.7-1.5-1.5V37.3c0-0.8,0.7-1.5,1.5-1.5s1.5,0.7,1.5,1.5v10.3
	C35,48.5,34.3,49.2,33.5,49.2z"/>
<path class="st0" d="M29.2,40.7c-0.6,0-1.1-0.3-1.4-0.9c-0.3-0.8,0-1.6,0.7-2l8.4-3.8c0.8-0.3,1.6,0,2,0.7c0.3,0.8,0,1.6-0.7,2
	l-8.4,3.8C29.7,40.7,29.4,40.7,29.2,40.7z"/>
<path class="st0" d="M64.2,20.3c-0.6,0-1.1-0.3-1.4-0.9c-0.3-0.7-0.1-1.4,0.5-1.8c0.1-0.5,0-1.9-0.9-4c-1-2.1-2-3.1-2.4-3.4
	c-0.7,0.1-1.4-0.2-1.7-0.8c-0.3-0.8,0-1.6,0.7-2c0.6-0.3,2-0.5,3.7,1.2c0.9,0.9,1.8,2.3,2.4,3.8c1.2,2.6,1.5,5,1,6.4
	c-0.3,0.8-0.9,1.2-1.3,1.4C64.6,20.3,64.4,20.3,64.2,20.3z"/>
<path class="st0" d="M4.7,45.5c-0.6,0-1.1-0.3-1.4-0.9l-3.2-7.1c-0.3-0.8,0-1.6,0.7-2c0.8-0.3,1.6,0,2,0.7l3.2,7.1
	c0.3,0.8,0,1.6-0.7,2C5.1,45.4,4.9,45.5,4.7,45.5z"/>
<path class="st0" d="M4.2,44.3c-0.2,0-0.4,0-0.5-0.1c-0.4-0.1-0.7-0.4-0.8-0.8l-2.2-4.8c-0.3-0.8,0-1.6,0.7-2l11.4-5.2
	c0.8-0.3,1.6,0,2,0.7L17,37c0.2,0.4,0.2,0.8,0,1.1c-0.1,0.4-0.4,0.7-0.8,0.8L4.8,44.2C4.7,44.3,4.4,44.3,4.2,44.3z M4,38.7l1,2.1
	l8.7-3.9l-1-2.1L4,38.7z"/>
<path class="st0" d="M48.8,28.3c-0.6,0-1.1-0.3-1.4-0.9l-5.4-11.8c-0.2-0.4-0.2-0.8,0-1.1c0.1-0.4,0.4-0.7,0.8-0.8l15.8-7.1
	c0.8-0.3,1.6,0,2,0.7L66,19.1c0.2,0.4,0.2,0.8,0,1.1c-0.1,0.4-0.4,0.7-0.8,0.8l-15.8,7.1C49.2,28.3,49,28.3,48.8,28.3z M45.4,15.8
	l4.1,9.1l13.1-5.9l-4.1-9.1L45.4,15.8z"/>
<path class="st0" d="M16.7,41.3c-0.6,0-1.1-0.3-1.4-0.9l-4.2-9.3c-0.2-0.4-0.2-0.8,0-1.1c0.1-0.4,0.4-0.7,0.8-0.8l31.6-14.3
	c0.8-0.3,1.6,0,2,0.7l4.2,9.3c0.2,0.4,0.2,0.8,0,1.1c-0.1,0.4-0.4,0.7-0.8,0.8L17.3,41.2C17.1,41.3,16.9,41.3,16.7,41.3z M14.5,31.3
	l3,6.5l28.8-13.1l-3-6.5L14.5,31.3z"/>
</svg>
