<?xml version="1.0" encoding="utf-8"?>
<!-- Generator: Adobe Illustrator 23.0.2, SVG Export Plug-In . SVG Version: 6.00 Build 0)  -->
<svg version="1.1" id="Layer_1" xmlns="http://www.w3.org/2000/svg" xmlns:xlink="http://www.w3.org/1999/xlink" x="0px" y="0px"
	 viewBox="0 0 115.5 119.8" style="enable-background:new 0 0 115.5 119.8;" xml:space="preserve">
<style type="text/css">
	.st0{fill:#41A648;}
</style>
<path class="st0" d="M59.9,56.5c-33.6,0-35.7-34-35.7-34.4l-0.1-1.9l1.9,0.3C60.6,26.8,61.9,54.7,61.9,55l0,1.5l-1.5,0
	C60.3,56.5,60.1,56.5,59.9,56.5z M27.4,23.9c0.9,6.8,5.8,28.9,31.4,29.6C58,48,53.6,29.4,27.4,23.9z"/>
<path class="st0" d="M19.4,119.8H6.6v-3h9.8V76.4H0v-3h19.4v10.1h4.1l14.4-13.2h32.8l0.4,0.9c1.1,2.5,1.8,7.8-2.2,12.3h3.4L82.6,67
	c2-2.4,7.7-6,14.8-2.4l1.3,0.7l-3.3,6.5l7.7-4.3l0.2,0c7.4-1.9,11,3.1,11.8,6l0.3,1L86.2,94.3l-48,17.6H19.4V119.8z M19.4,109h18.2
	L85,91.6l26.8-18.2c-0.8-1.5-2.9-4.1-7.6-3L75.1,86.4H64.9c-1.5,0.2-6,0.2-21,0l0-3h20.6c5.3-3.7,4.8-8.3,4.2-10.2H39.1L24.7,86.4
	h-5.3V109z M84.9,68.8l-8.2,13.3l14-7.7l3.9-7.7C89,64.6,85.5,68.2,84.9,68.8z M60.7,66.3c0-0.2-2.8-12.5,1.5-26.1l0-1.4
	C61.9,2.4,98.5,0.1,98.9,0.1l1.9-0.1l-0.3,1.9c-5.7,32-28.7,37.4-35,38.3c-4.5,13.1-1.8,25.3-1.8,25.5L60.7,66.3z M79.8,16.7
	l1.7,2.5C74,24.3,69.4,30.6,66.6,36.9c7.1-1.3,24.9-7.1,30.4-33.7c-6.7,0.9-28.3,5.4-31.5,28.9C68.6,26.6,73.1,21.2,79.8,16.7z"/>
</svg>
