<?xml version="1.0" encoding="utf-8"?>
<!-- Generator: Adobe Illustrator 23.0.2, SVG Export Plug-In . SVG Version: 6.00 Build 0)  -->
<svg version="1.1" id="Layer_1" xmlns="http://www.w3.org/2000/svg" xmlns:xlink="http://www.w3.org/1999/xlink" x="0px" y="0px"
	 viewBox="0 0 87.3 75.5" style="enable-background:new 0 0 87.3 75.5;" xml:space="preserve">
<style type="text/css">
	.st0{fill:#28255C;}
</style>
<path class="st0" d="M34.5,61.5c-0.4,0-0.7-0.1-1-0.4L13.9,44c-0.6-0.5-0.7-1.5-0.1-2.1c0.5-0.6,1.5-0.7,2.1-0.1l19.6,17.1
	c0.6,0.5,0.7,1.5,0.1,2.1C35.3,61.4,34.9,61.5,34.5,61.5z"/>
<path class="st0" d="M10.4,49.2c-0.4,0-0.7-0.1-1-0.4c-0.6-0.6-0.7-1.5-0.1-2.1l7.2-7.9c0.6-0.6,1.5-0.7,2.1-0.1
	c0.6,0.6,0.7,1.5,0.1,2.1l-7.2,7.9C11.3,49.1,10.8,49.2,10.4,49.2z"/>
<path class="st0" d="M36.3,16.9c-4.2,0-6.4-2.9-6.4-5.7c0-1.1,0.6-2.2,1.7-3.2c0.6-0.5,1.6-0.5,2.1,0.1c0.5,0.6,0.5,1.6-0.1,2.1
	c-0.5,0.4-0.7,0.8-0.7,0.9c0,1,0.7,2.7,3.4,2.7c2.2,0,4.7-2.1,5.1-3.2c0.3-0.8,1.2-1.1,1.9-0.8c0.8,0.3,1.1,1.2,0.8,1.9
	C43.4,13.9,39.9,16.9,36.3,16.9z"/>
<path class="st0" d="M32.7,10.6c-0.5,0-0.9-0.2-1.2-0.6c-0.5-0.7-0.4-1.6,0.3-2.1l8.3-6.3c2.8-2.1,7.2-2.1,10.1,0
	c0,0,0.1,0.1,0.1,0.1l3.6,3.5c0.6,0.6,0.6,1.5,0,2.1c-0.6,0.6-1.5,0.6-2.1,0L48.3,4c-1.8-1.3-4.6-1.3-6.4,0l-8.3,6.3
	C33.4,10.5,33.1,10.6,32.7,10.6z"/>
<path class="st0" d="M23,74.3c-0.4,0-0.7-0.1-1-0.4L0.5,54.7c-0.6-0.5-0.7-1.5-0.1-2.1l6.8-7.7c0.5-0.6,1.5-0.7,2.1-0.1L30,62.8
	l13.4-14.9c0.7-0.8,1.7-1.3,2.8-1.3l1.4-0.1c0,0,0.1,0,0.1,0c0.6,0,1.2-0.1,1.8-0.4l15.2-7.6c2.9-1.5,2.6-2.9,2.5-3.3
	c-0.2-0.7-0.6-1.3-1.2-1.6c-0.6-0.4-1.4-0.5-2.1-0.3l-0.6,0.1c-0.8,0.2-1.6-0.3-1.8-1.1c-0.2-0.8,0.3-1.6,1.1-1.8l0.6-0.1
	c1.5-0.3,3.1-0.1,4.4,0.7c1.3,0.8,2.2,2.1,2.6,3.5c0.3,1.5,0.3,4.5-4.1,6.7l-15.2,7.6c-0.9,0.5-2,0.7-3.1,0.7c0,0,0,0-0.1,0
	l-1.4,0.1c-0.3,0-0.5,0.1-0.7,0.4L24.2,73.8C23.9,74.1,23.5,74.3,23,74.3z M3.6,53.4l19.3,17.2L28,65L8.4,48L3.6,53.4z"/>
<path class="st0" d="M63.6,33.2c-0.7,0-1.3-0.5-1.5-1.2c-0.2-0.8,0.3-1.6,1.1-1.8l1.1-0.2c0.7-0.2,1.4-0.6,1.8-1.2
	c0.4-0.6,0.5-1.3,0.4-2c-0.3-1.4-1.8-2.3-3.3-2c-0.8,0.2-1.6-0.3-1.8-1.1c-0.2-0.8,0.3-1.6,1.1-1.8c3.1-0.7,6.2,1.2,6.9,4.2
	c0.3,1.5,0.1,3-0.8,4.3c-0.8,1.3-2.1,2.2-3.6,2.5l-1.1,0.2C63.8,33.2,63.7,33.2,63.6,33.2z"/>
<path class="st0" d="M61.8,25c-0.7,0-1.3-0.5-1.5-1.2c-0.2-0.8,0.3-1.6,1.1-1.8l2.2-0.5c1.5-0.3,2.5-1.8,2.1-3.2
	c-0.3-1.4-1.8-2.3-3.4-2c-0.8,0.2-1.6-0.3-1.8-1.1c-0.2-0.8,0.3-1.6,1.1-1.8c3.1-0.7,6.3,1.2,6.9,4.2c0.7,3-1.3,6.1-4.4,6.8L62.2,25
	C62.1,25,62,25,61.8,25z"/>
<path class="st0" d="M60.8,16.7c-0.7,0-1.3-0.5-1.5-1.2c-0.2-0.8,0.3-1.6,1.1-1.8l5.2-1.2c0.7-0.2,1.4-0.6,1.8-1.2
	c0.4-0.6,0.5-1.3,0.4-2c-0.2-0.7-0.6-1.3-1.2-1.6c-0.6-0.4-1.4-0.5-2.1-0.3l-21.4,5.4c-0.8,0.2-1.6-0.3-1.8-1.1s0.3-1.6,1.1-1.8
	l21.4-5.4c1.5-0.3,3.1-0.1,4.4,0.7c1.3,0.8,2.2,2.1,2.6,3.5c0.3,1.5,0.1,3-0.8,4.3c-0.8,1.3-2.1,2.2-3.6,2.5l-5.2,1.2
	C61,16.7,60.9,16.7,60.8,16.7z"/>
<path class="st0" d="M58.1,66.4c-0.4,0-0.8-0.2-1.1-0.5l-4.1-4.5c-0.3-0.3-0.4-0.7-0.4-1.1s0.2-0.8,0.5-1l18.5-17.1
	c0.6-0.6,1.6-0.5,2.1,0.1l4.1,4.5c0.3,0.3,0.4,0.7,0.4,1.1s-0.2,0.8-0.5,1L59.1,66C58.8,66.2,58.4,66.4,58.1,66.4z M56.1,60.5
	l2.1,2.3l16.3-15.1l-2.1-2.3L56.1,60.5z"/>
<path class="st0" d="M64,75.5C64,75.5,64,75.5,64,75.5c-0.5,0-0.8-0.2-1.1-0.5l-7.2-7.9c-0.6-0.6-0.5-1.6,0.1-2.1l1.2-1.2
	c0.6-0.6,1.6-0.5,2.1,0.1c0.6,0.6,0.5,1.6-0.1,2.1l-0.2,0.1l5.2,5.7l19.6-18.1L78.4,48l-0.8,0.8c-0.6,0.6-1.5,0.6-2.1,0
	c-0.6-0.6-0.6-1.5,0-2.1l1.9-1.9c0.3-0.3,0.7-0.4,1.1-0.4c0.4,0,0.8,0.2,1.1,0.5l7.3,7.9c0.6,0.6,0.5,1.6-0.1,2.1L65,75.1
	C64.7,75.3,64.4,75.5,64,75.5z"/>
<path class="st0" d="M34.6,37.4c-0.7,0-1.3-0.1-2-0.4l0,0l-12.1-5.2c-2.6-1.1-3.7-4.1-2.6-6.6c1.1-2.6,4.1-3.7,6.6-2.6l12.1,5.2
	c1.2,0.5,2.2,1.5,2.7,2.8c0.5,1.3,0.5,2.6-0.1,3.9C38.5,36.2,36.6,37.4,34.6,37.4z M33.8,34.2c1,0.4,2.2,0,2.7-1.1
	c0.2-0.5,0.2-1.1,0-1.6c-0.2-0.5-0.6-0.9-1.1-1.1l-12.1-5.2c-1-0.4-2.2,0-2.7,1.1c-0.4,1,0,2.2,1.1,2.7L33.8,34.2z"/>
<path class="st0" d="M31.8,43.9c-0.7,0-1.3-0.1-2-0.4c0,0,0,0,0,0l-12.1-5.2c-2.6-1.1-3.7-4.1-2.6-6.6c0.5-1.2,1.5-2.2,2.8-2.7
	c1.3-0.5,2.6-0.5,3.9,0.1l12.1,5.2c1.2,0.5,2.2,1.5,2.7,2.8s0.5,2.6-0.1,3.9C35.6,42.7,33.8,43.9,31.8,43.9z M31,40.7
	c1,0.4,2.2,0,2.7-1.1c0.2-0.5,0.2-1.1,0-1.6c-0.2-0.5-0.6-0.9-1.1-1.1l-12.1-5.2c-0.5-0.2-1.1-0.2-1.6,0c-0.5,0.2-0.9,0.6-1.1,1.1
	c-0.2,0.5-0.2,1.1,0,1.6c0.2,0.5,0.6,0.9,1.1,1.1L31,40.7z"/>
<path class="st0" d="M40.2,24.3c-0.7,0-1.3-0.1-2-0.4l-12.1-5.2c-2.6-1.1-3.7-4.1-2.6-6.6c0.5-1.2,1.5-2.2,2.8-2.7
	c1.3-0.5,2.6-0.5,3.9,0.1c0.8,0.3,1.1,1.2,0.8,2c-0.3,0.8-1.2,1.1-2,0.8c-0.5-0.2-1.1-0.2-1.6,0c-0.5,0.2-0.9,0.6-1.1,1.1
	c-0.4,1,0,2.2,1.1,2.7l12.1,5.2c1,0.4,2.2,0,2.7-1.1c0.4-1,0-2.2-1.1-2.7c-0.8-0.3-1.1-1.2-0.8-2c0.3-0.8,1.2-1.1,2-0.8
	c2.6,1.1,3.7,4.1,2.6,6.6C44.1,23.2,42.2,24.3,40.2,24.3z"/>
<path class="st0" d="M37.4,30.8c-0.7,0-1.3-0.1-2-0.4l-12.1-5.2c-1.2-0.5-2.2-1.5-2.7-2.8c-0.5-1.3-0.5-2.6,0.1-3.9
	c1.1-2.6,4.1-3.7,6.6-2.6c0.8,0.3,1.1,1.2,0.8,2c-0.3,0.8-1.2,1.1-2,0.8c-1-0.4-2.2,0-2.7,1.1c-0.4,1,0,2.2,1.1,2.7l12.1,5.2
	c1,0.4,2.2,0,2.7-1.1c0.2-0.5,0.2-1.1,0-1.6c-0.2-0.5-0.6-0.9-1.1-1.1c-0.8-0.3-1.1-1.2-0.8-2c0.3-0.8,1.2-1.1,2-0.8
	c1.2,0.5,2.2,1.5,2.7,2.8c0.5,1.3,0.5,2.6-0.1,3.9C41.3,29.7,39.4,30.8,37.4,30.8z"/>
<path class="st0" d="M72.4,44.8c-0.4,0-0.8-0.2-1.1-0.5l-3-3.4c-0.5-0.6-0.5-1.6,0.1-2.1c0.6-0.5,1.6-0.5,2.1,0.1l3,3.4
	c0.5,0.6,0.5,1.6-0.1,2.1C73.1,44.7,72.7,44.8,72.4,44.8z"/>
<path class="st0" d="M53.9,61.9c-0.4,0-0.9-0.2-1.1-0.5l-5.5-6.5c-0.2-0.2-0.4-0.3-0.6-0.4l-2-0.9c-0.8-0.3-1.1-1.2-0.8-2
	c0.3-0.8,1.2-1.1,2-0.8l2,0.9c0.7,0.3,1.3,0.7,1.7,1.3l5.5,6.5c0.5,0.6,0.5,1.6-0.2,2.1C54.6,61.8,54.3,61.9,53.9,61.9z"/>
</svg>
