<?xml version="1.0" encoding="utf-8"?>
<!-- Generator: Adobe Illustrator 23.0.2, SVG Export Plug-In . SVG Version: 6.00 Build 0)  -->
<svg version="1.1" id="Layer_1" xmlns="http://www.w3.org/2000/svg" xmlns:xlink="http://www.w3.org/1999/xlink" x="0px" y="0px"
	 viewBox="0 0 78.1 144.6" style="enable-background:new 0 0 78.1 144.6;" xml:space="preserve">
<style type="text/css">
	.st0{fill:#FCB31F;}
</style>
<rect x="39.1" y="97" class="st0" width="13.6" height="2.3"/>
<path class="st0" d="M44.4,61.7h-5.3v-2.3h5.3c5,0,9.8-1.9,13.5-5.3l7.5-6.9c2.2-2.1,2.8-5.4,1.5-8.1l-2.7-5.3l2-1.1l2.7,5.3
	c1.8,3.6,1,8.1-2,10.8l-7.5,6.9C55.4,59.7,50,61.7,44.4,61.7z"/>
<path class="st0" d="M53.8,98.2h-2.3V80.8c0-5.8,2.5-11.3,6.7-15.2l12-10.9c5.7-5.1,7.2-13.5,3.7-20.3l-0.2-0.5l2-1l0.2,0.5
	c4,7.8,2.2,17.2-4.2,23.1l-12,10.9c-3.8,3.4-6,8.4-6,13.5V98.2z"/>
<path class="st0" d="M39.1,54.4c-5.3,0-9.6-4.3-9.6-9.6c0-5.3,4.3-9.6,9.6-9.6c5.3,0,9.6,4.3,9.6,9.6C48.7,50.1,44.4,54.4,39.1,54.4
	z M39.1,37.4c-4,0-7.3,3.3-7.3,7.3c0,4,3.3,7.3,7.3,7.3c4,0,7.3-3.3,7.3-7.3C46.4,40.7,43.1,37.4,39.1,37.4z"/>
<rect x="51.5" y="98.2" class="st0" width="2.3" height="46.5"/>
<rect x="24.3" y="98.2" class="st0" width="2.3" height="46.5"/>
<path class="st0" d="M26.6,98.2h-2.3V80.8c0-5.1-2.2-10.1-6-13.5l-12-10.9c-6.5-5.8-8.2-15.3-4.2-23.1l0.2-0.5l2,1l-0.2,0.5
	c-3.5,6.8-2,15.2,3.7,20.3l12,10.9c4.3,3.9,6.7,9.4,6.7,15.2V98.2z"/>
<rect x="25.5" y="97" class="st0" width="13.6" height="2.3"/>
<rect x="37.9" y="98.2" class="st0" width="2.3" height="46.5"/>
<rect x="37.9" y="60.6" class="st0" width="2.3" height="25.8"/>
<path class="st0" d="M39.1,61.7h-5.3c-5.6,0-11-2.1-15.1-5.9L11.1,49c-3-2.8-3.8-7.2-2-10.8l2.7-5.3l2.1,1l-2.7,5.3
	c-1.4,2.7-0.8,6,1.5,8.1l7.5,6.9c3.7,3.4,8.5,5.3,13.6,5.3h5.3V61.7z"/>
<path class="st0" d="M30.4,20.9c-0.3,0-0.7-0.1-1.1-0.4l-3.7-2.9c-0.5-0.4-1.3-0.4-1.7,0l-3.7,2.9c-0.9,0.7-1.6,0.4-1.8,0.2
	c-0.3-0.2-0.8-0.7-0.4-1.8l1.5-4.6c0.2-0.6-0.1-1.5-0.6-1.8l-3.7-2.8c-0.9-0.7-0.8-1.4-0.7-1.7c0.1-0.2,0.4-1,1.5-1c0,0,0,0,0,0
	L20.5,7c0,0,0,0,0,0c0.6,0,1.3-0.5,1.5-1.1l1.4-4.7C23.7,0.1,24.4,0,24.7,0h0c0.3,0,1.1,0.1,1.4,1.2l0,0l1.4,4.7
	C27.7,6.5,28.4,7,29,7l4.5-0.1c1.2,0,1.5,0.7,1.6,0.9c0.1,0.3,0.2,1-0.7,1.7l-3.7,2.8c-0.5,0.4-0.8,1.2-0.6,1.8l1.5,4.6
	c0.3,1.1-0.2,1.6-0.4,1.8C31,20.7,30.7,20.9,30.4,20.9z M18.5,9.2l1.7,1.3c1.3,1,1.9,2.8,1.4,4.4l-0.6,2l1.5-1.2c1.3-1,3.3-1,4.6,0
	l1.5,1.2l-0.7-2c-0.5-1.5,0.1-3.4,1.4-4.4L31,9.3l-2,0c-1.6,0-3.2-1.2-3.7-2.7l-0.6-1.9l-0.6,1.9c-0.5,1.5-2.1,2.7-3.7,2.7L18.5,9.2
	z"/>
<path class="st0" d="M48.4,20.9c-0.3,0-0.6-0.1-0.7-0.2c-0.3-0.2-0.8-0.7-0.5-1.8l1.5-4.7c0.2-0.6-0.1-1.5-0.6-1.8l-3.7-2.8
	c-0.9-0.7-0.7-1.5-0.7-1.7c0.1-0.2,0.4-1,1.6-0.9L49.8,7c0,0,0,0,0,0c0.6,0,1.3-0.5,1.4-1.1l1.4-4.7C53,0.1,53.8,0,54.1,0
	c0.3,0,1.1,0.1,1.4,1.2l1.4,4.7C57,6.5,57.7,7,58.3,7l4.5-0.1c0,0,0,0,0,0c1.1,0,1.5,0.7,1.5,0.9c0.1,0.2,0.3,1-0.7,1.7L60,12.4
	c-0.5,0.4-0.8,1.2-0.6,1.8l1.5,4.6c0.4,1.1-0.3,1.7-0.5,1.8c-0.2,0.1-0.9,0.5-1.8-0.2l-3.7-2.9c-0.5-0.4-1.3-0.4-1.7,0l-3.7,2.9
	C49.1,20.8,48.7,20.9,48.4,20.9z M47.8,9.2l1.7,1.3c1.3,1,1.9,2.8,1.4,4.4l-0.7,2l1.5-1.2c1.3-1,3.3-1,4.6,0l1.5,1.2l-0.7-2
	c-0.5-1.5,0.1-3.4,1.4-4.4l1.7-1.3l-2,0c-1.6,0-3.2-1.2-3.7-2.7l-0.6-1.9l-0.6,1.9c-0.4,1.5-2,2.7-3.6,2.7c0,0,0,0,0,0L47.8,9.2z"/>
</svg>
