<?xml version="1.0" encoding="utf-8"?>
<!-- Generator: Adobe Illustrator 23.0.2, SVG Export Plug-In . SVG Version: 6.00 Build 0)  -->
<svg version="1.1" id="Layer_1" xmlns="http://www.w3.org/2000/svg" xmlns:xlink="http://www.w3.org/1999/xlink" x="0px" y="0px"
	 viewBox="0 0 690.3 635.1" style="enable-background:new 0 0 690.3 635.1;" xml:space="preserve">
<style type="text/css">
	.st0{fill:none;stroke:#F1F0F3;stroke-width:19.52;stroke-linecap:round;stroke-linejoin:round;stroke-miterlimit:10;}
	.st1{fill:none;stroke:#EAE9EE;stroke-width:2.44;stroke-linecap:round;stroke-linejoin:round;stroke-miterlimit:10;}
	.st2{fill:none;stroke:#F1F0F3;stroke-width:4.469;stroke-linecap:round;stroke-linejoin:round;stroke-miterlimit:10;}
	.st3{fill:none;}
	.st4{fill:#C0BDCE;}
	.st5{fill:none;stroke:#C0BDCE;stroke-width:2.135;stroke-linecap:round;stroke-linejoin:round;stroke-miterlimit:10;}
	.st6{fill:#FFFFFF;}
</style>
<polyline class="st0" points="306.2,-28.3 383.4,97.3 386.9,152.7 406.5,175.7 460.7,208 475.6,234.5 543.7,234.5 580.6,317.5 
	715.4,428.2 "/>
<polyline class="st1" points="-18.9,424.7 317.7,321 441.1,289.9 510.2,253 506.8,218.4 520.6,199.9 505.8,177.5 377.7,-16.8 "/>
<polyline class="st1" points="521.2,200 562.1,224.2 594.4,278.3 658.9,336 680.8,355.6 720,391.3 "/>
<line class="st1" x1="694.1" y1="-70.6" x2="522.3" y2="200.3"/>
<line class="st1" x1="837" y1="432" x2="694.1" y2="-70.6"/>
<polyline class="st1" points="237.6,-15.3 151.2,93.7 -20,169.7 38.2,296.6 69.9,400.5 165,678.5 409.8,592 468.6,491.3 837,432 "/>
<path class="st2" d="M111.1-29l114.1,176.4c0.2,0.4,0.4,0.7,0.5,1.1c18.6,61.4,37.1,122.8,55.7,184.2
	C369.7,442.9,458,553,546.3,663.2"/>
<path class="st2" d="M103.6-24.1c37.9,58.6,75.9,117.2,113.8,175.8c18.6,61.5,37.2,122.9,55.7,184.4c0.2,0.5,0.4,1.1,0.8,1.5
	l265.4,331.2"/>
<path class="st3" d="M15.9,0C7.1,0,0,7.1,0,15.9v603.2c0,8.8,7.1,15.9,15.9,15.9h658.4c8.8,0,15.9-7.1,15.9-15.9V15.9
	c0-8.8-7.1-15.9-15.9-15.9H15.9z"/>
<g>
	<path class="st4" d="M138,246.8h1.5l1.2,6.1c0.2,1.2,0.4,2.4,0.7,3.6h0.1c0.2-1.2,0.5-2.4,0.8-3.6l1.6-6.1h1.3l1.6,6.1
		c0.3,1.2,0.5,2.4,0.8,3.6h0.1c0.2-1.2,0.4-2.4,0.6-3.6l1.2-6.1h1.4l-2.3,11.2h-1.7l-1.7-6.7c-0.2-0.9-0.4-1.7-0.5-2.6h-0.1
		c-0.2,0.9-0.4,1.7-0.6,2.6l-1.7,6.7h-1.7L138,246.8z"/>
	<path class="st4" d="M152.2,247.1c0-0.6,0.4-0.9,1-0.9c0.5,0,1,0.4,1,0.9c0,0.5-0.4,0.9-1,0.9C152.6,248,152.2,247.6,152.2,247.1z
		 M152.4,249.7h1.4v8.3h-1.4V249.7z"/>
	<path class="st4" d="M154.6,261.5l0.3-1.1c0.2,0.1,0.5,0.1,0.8,0.1c0.8,0,1-0.6,1-1.6v-9.2h1.4v9.2c0,1.7-0.6,2.8-2.3,2.8
		C155.3,261.7,154.8,261.6,154.6,261.5z M156.4,247.1c0-0.6,0.4-0.9,1-0.9s1,0.4,1,0.9c0,0.5-0.4,0.9-1,0.9S156.4,247.6,156.4,247.1
		z"/>
	<path class="st4" d="M160.2,253.8c0-2.8,1.9-4.4,4-4.4c1.1,0,1.8,0.4,2.4,1l-0.7,0.9c-0.5-0.4-1-0.7-1.6-0.7
		c-1.5,0-2.6,1.3-2.6,3.2s1,3.2,2.6,3.2c0.8,0,1.4-0.4,1.9-0.8l0.6,0.9c-0.7,0.7-1.7,1.1-2.7,1.1
		C161.9,258.2,160.2,256.6,160.2,253.8z"/>
	<path class="st4" d="M168.6,245.8h1.4v3.3l-0.1,1.7c0.8-0.7,1.6-1.4,2.8-1.4c1.7,0,2.5,1.1,2.5,3.2v5.3h-1.4v-5.1
		c0-1.5-0.5-2.2-1.6-2.2c-0.8,0-1.4,0.4-2.3,1.3v6h-1.4V245.8z"/>
	<path class="st4" d="M177.3,253.8c0-2.7,1.8-4.4,3.7-4.4c2.1,0,3.3,1.5,3.3,3.9c0,0.3,0,0.6-0.1,0.8h-5.6c0.1,1.8,1.2,2.9,2.8,2.9
		c0.8,0,1.5-0.3,2.1-0.7l0.5,0.9c-0.7,0.5-1.6,0.9-2.7,0.9C179.1,258.2,177.3,256.6,177.3,253.8z M183.1,253.1c0-1.7-0.7-2.6-2-2.6
		c-1.2,0-2.2,0.9-2.4,2.6H183.1z"/>
	<path class="st4" d="M186.4,249.7h1.2l0.1,1.2h0c0.8-0.8,1.6-1.4,2.8-1.4c1.7,0,2.5,1.1,2.5,3.2v5.3h-1.4v-5.1
		c0-1.5-0.5-2.2-1.6-2.2c-0.8,0-1.4,0.4-2.3,1.3v6h-1.4V249.7z"/>
</g>
<g>
	<path class="st4" d="M525.8,554.1h1.5l1.8,6.1c0.4,1.3,0.7,2.4,1.1,3.7h0.1c0.4-1.3,0.7-2.4,1.1-3.7l1.8-6.1h1.5l-3.6,11.2h-1.7
		L525.8,554.1z"/>
</g>
<g>
	<path class="st4" d="M535.2,561.2c0-2.7,1.8-4.4,3.7-4.4c2.1,0,3.3,1.5,3.3,3.9c0,0.3,0,0.6-0.1,0.8h-5.6c0.1,1.8,1.2,2.9,2.8,2.9
		c0.8,0,1.5-0.3,2.1-0.7l0.5,0.9c-0.7,0.5-1.6,0.9-2.7,0.9C536.9,565.5,535.2,563.9,535.2,561.2z M541,560.5c0-1.7-0.7-2.6-2-2.6
		c-1.2,0-2.2,0.9-2.4,2.6H541z"/>
	<path class="st4" d="M544.2,557h1.2l0.1,1.2h0c0.8-0.8,1.6-1.4,2.8-1.4c1.7,0,2.5,1.1,2.5,3.2v5.3h-1.4v-5.1c0-1.5-0.5-2.2-1.6-2.2
		c-0.8,0-1.4,0.4-2.3,1.3v6h-1.4V557z"/>
	<path class="st4" d="M553.6,563.6v-10.5h1.4v10.6c0,0.4,0.2,0.6,0.4,0.6c0.1,0,0.1,0,0.3,0l0.2,1.1c-0.2,0.1-0.4,0.1-0.8,0.1
		C554,565.5,553.6,564.8,553.6,563.6z"/>
	<path class="st4" d="M557.3,561.2c0-2.8,1.8-4.4,3.8-4.4s3.8,1.6,3.8,4.4c0,2.7-1.8,4.3-3.8,4.3S557.3,563.9,557.3,561.2z
		 M563.6,561.2c0-1.9-1-3.2-2.4-3.2s-2.4,1.3-2.4,3.2c0,1.9,1,3.2,2.4,3.2S563.6,563.1,563.6,561.2z"/>
</g>
<g>
	<path class="st4" d="M320.4,579.5h1.5l1.8,6.1c0.4,1.3,0.7,2.4,1.1,3.7h0.1c0.4-1.3,0.7-2.4,1.1-3.7l1.8-6.1h1.5l-3.6,11.2H324
		L320.4,579.5z"/>
</g>
<g>
	<path class="st4" d="M329.8,586.5c0-2.7,1.8-4.4,3.7-4.4c2.1,0,3.3,1.5,3.3,3.9c0,0.3,0,0.6-0.1,0.8h-5.6c0.1,1.8,1.2,2.9,2.8,2.9
		c0.8,0,1.5-0.3,2.1-0.7l0.5,0.9c-0.7,0.5-1.6,0.9-2.7,0.9C331.5,590.9,329.8,589.3,329.8,586.5z M335.6,585.9c0-1.7-0.7-2.6-2-2.6
		c-1.2,0-2.2,0.9-2.4,2.6H335.6z"/>
	<path class="st4" d="M338.8,582.4h1.2l0.1,1.2h0c0.8-0.8,1.6-1.4,2.8-1.4c1.7,0,2.5,1.1,2.5,3.2v5.3h-1.4v-5.1
		c0-1.5-0.5-2.2-1.6-2.2c-0.8,0-1.4,0.4-2.3,1.3v6h-1.4V582.4z"/>
	<path class="st4" d="M348.2,582.4h1.2l0.1,1.5h0c0.6-1.1,1.4-1.7,2.4-1.7c0.4,0,0.6,0,0.9,0.2l-0.3,1.2c-0.3-0.1-0.5-0.1-0.8-0.1
		c-0.7,0-1.5,0.5-2.1,1.9v5.3h-1.4V582.4z"/>
</g>
<g>
	<path class="st4" d="M353.2,588.5c0-1.8,1.6-2.7,5.1-3.1c0-1.1-0.4-2.1-1.7-2.1c-1,0-1.8,0.5-2.5,0.9l-0.5-1
		c0.8-0.5,1.9-1.1,3.3-1.1c2,0,2.9,1.3,2.9,3.4v5.1h-1.2l-0.1-1h0c-0.8,0.7-1.7,1.2-2.7,1.2C354.2,590.9,353.2,590,353.2,588.5z
		 M358.3,588.6v-2.3c-2.8,0.3-3.7,1-3.7,2.1c0,0.9,0.6,1.3,1.5,1.3C356.8,589.7,357.5,589.4,358.3,588.6z"/>
	<path class="st4" d="M361.5,594.1l0.3-1.1c0.2,0.1,0.4,0.1,0.6,0.1c0.9,0,1.5-0.8,1.9-1.8l0.2-0.6l-3.3-8.3h1.4l1.7,4.6
		c0.3,0.7,0.5,1.6,0.8,2.3h0.1c0.2-0.8,0.5-1.6,0.7-2.3l1.5-4.6h1.4l-3.1,9c-0.6,1.6-1.4,2.9-3.1,2.9
		C362.1,594.2,361.7,594.2,361.5,594.1z"/>
</g>
<g>
	<path class="st4" d="M168,478.5h1.5l1.8,6.1c0.4,1.3,0.7,2.4,1.1,3.7h0.1c0.4-1.3,0.7-2.4,1.1-3.7l1.8-6.1h1.5l-3.6,11.2h-1.7
		L168,478.5z"/>
	<path class="st4" d="M177.4,485.5c0-2.7,1.8-4.4,3.7-4.4c2.1,0,3.3,1.5,3.3,3.9c0,0.3,0,0.6-0.1,0.8h-5.6c0.1,1.8,1.2,2.9,2.8,2.9
		c0.8,0,1.5-0.3,2.1-0.7l0.5,0.9c-0.7,0.5-1.6,0.9-2.7,0.9C179.1,489.9,177.4,488.2,177.4,485.5z M183.2,484.8c0-1.7-0.7-2.6-2-2.6
		c-1.2,0-2.2,0.9-2.4,2.6H183.2z"/>
</g>
<g>
	<path class="st4" d="M185.7,491.3c0-0.7,0.5-1.4,1.2-1.9v-0.1c-0.4-0.3-0.7-0.7-0.7-1.4c0-0.7,0.5-1.2,0.9-1.5v-0.1
		c-0.5-0.4-1.1-1.2-1.1-2.2c0-1.8,1.4-3,3.1-3c0.5,0,0.9,0.1,1.2,0.2h2.9v1.1h-1.7c0.4,0.4,0.7,1,0.7,1.7c0,1.8-1.3,2.9-3,2.9
		c-0.4,0-0.9-0.1-1.2-0.3c-0.3,0.3-0.5,0.5-0.5,1c0,0.5,0.3,0.9,1.5,0.9h1.6c1.9,0,2.9,0.6,2.9,2c0,1.5-1.6,2.9-4.2,2.9
		C187.1,493.5,185.7,492.7,185.7,491.3z M191.9,490.8c0-0.8-0.6-1-1.7-1h-1.4c-0.3,0-0.7,0-1.1-0.1c-0.6,0.4-0.8,0.9-0.8,1.4
		c0,0.9,0.9,1.5,2.4,1.5C190.9,492.5,191.9,491.7,191.9,490.8z M190.9,484.1c0-1.2-0.8-1.9-1.8-1.9s-1.8,0.7-1.8,1.9
		c0,1.2,0.8,2,1.8,2C190.1,486.1,190.9,485.3,190.9,484.1z"/>
	<path class="st4" d="M194.9,477.5h1.4v3.3l-0.1,1.7c0.8-0.7,1.6-1.4,2.8-1.4c1.7,0,2.5,1.1,2.5,3.2v5.3h-1.4v-5.1
		c0-1.5-0.5-2.2-1.6-2.2c-0.8,0-1.4,0.4-2.3,1.3v6h-1.4V477.5z"/>
	<path class="st4" d="M203.6,485.5c0-2.7,1.8-4.4,3.7-4.4c2.1,0,3.3,1.5,3.3,3.9c0,0.3,0,0.6-0.1,0.8H205c0.1,1.8,1.2,2.9,2.8,2.9
		c0.8,0,1.5-0.3,2.1-0.7l0.5,0.9c-0.7,0.5-1.6,0.9-2.7,0.9C205.4,489.9,203.6,488.2,203.6,485.5z M209.4,484.8c0-1.7-0.7-2.6-2-2.6
		c-1.2,0-2.2,0.9-2.4,2.6H209.4z"/>
	<path class="st4" d="M212.7,488v-10.5h1.4v10.6c0,0.4,0.2,0.6,0.4,0.6c0.1,0,0.1,0,0.3,0l0.2,1.1c-0.2,0.1-0.4,0.1-0.8,0.1
		C213.1,489.9,212.7,489.2,212.7,488z"/>
</g>
<g>
	<path class="st4" d="M498.8,453.2h3.3c2.3,0,3.9,0.8,3.9,2.7c0,1.1-0.6,2.1-1.6,2.4v0.1c1.3,0.3,2.3,1.1,2.3,2.7
		c0,2.2-1.7,3.3-4.2,3.3h-3.6V453.2z M501.9,458c1.9,0,2.7-0.7,2.7-1.8c0-1.3-0.9-1.8-2.6-1.8h-1.7v3.6H501.9z M502.2,463.3
		c1.9,0,3-0.7,3-2.2c0-1.4-1.1-2-3-2h-2v4.2H502.2z"/>
	<path class="st4" d="M508.1,460.3c0-2.8,1.8-4.4,3.8-4.4s3.8,1.6,3.8,4.4c0,2.7-1.8,4.3-3.8,4.3S508.1,463,508.1,460.3z
		 M514.3,460.3c0-1.9-1-3.2-2.4-3.2s-2.4,1.3-2.4,3.2c0,1.9,1,3.2,2.4,3.2S514.3,462.2,514.3,460.3z"/>
</g>
<g>
	<path class="st4" d="M519.2,460.1l-2.5-4h1.5l1.1,1.8c0.3,0.5,0.5,0.9,0.8,1.4h0.1c0.3-0.5,0.5-0.9,0.8-1.4l1-1.8h1.5l-2.5,4.1
		l2.7,4.2h-1.5l-1.2-1.9c-0.3-0.5-0.6-1-0.9-1.5h-0.1c-0.3,0.5-0.6,1-0.8,1.5l-1.1,1.9h-1.5L519.2,460.1z"/>
	<path class="st4" d="M525.3,456.1h1.2l0.1,1.2h0c0.7-0.8,1.6-1.4,2.6-1.4c1.3,0,1.9,0.6,2.3,1.6c0.9-0.9,1.7-1.6,2.7-1.6
		c1.7,0,2.5,1.1,2.5,3.2v5.3h-1.4v-5.1c0-1.5-0.5-2.2-1.5-2.2c-0.6,0-1.3,0.4-2.1,1.3v6h-1.4v-5.1c0-1.5-0.5-2.2-1.5-2.2
		c-0.6,0-1.3,0.4-2.1,1.3v6h-1.4V456.1z"/>
	<path class="st4" d="M538.8,460.3c0-2.7,1.8-4.4,3.7-4.4c2.1,0,3.3,1.5,3.3,3.9c0,0.3,0,0.6-0.1,0.8h-5.6c0.1,1.8,1.2,2.9,2.8,2.9
		c0.8,0,1.5-0.3,2.1-0.7l0.5,0.9c-0.7,0.5-1.6,0.9-2.7,0.9C540.6,464.6,538.8,463,538.8,460.3z M544.6,459.6c0-1.7-0.7-2.6-2-2.6
		c-1.2,0-2.2,0.9-2.4,2.6H544.6z"/>
	<path class="st4" d="M547.3,460.3c0-2.7,1.8-4.4,3.7-4.4c2.1,0,3.3,1.5,3.3,3.9c0,0.3,0,0.6-0.1,0.8h-5.6c0.1,1.8,1.2,2.9,2.8,2.9
		c0.8,0,1.5-0.3,2.1-0.7l0.5,0.9c-0.7,0.5-1.6,0.9-2.7,0.9C549.1,464.6,547.3,463,547.3,460.3z M553.1,459.6c0-1.7-0.7-2.6-2-2.6
		c-1.2,0-2.2,0.9-2.4,2.6H553.1z"/>
	<path class="st4" d="M556.4,456.1h1.2l0.1,1.5h0c0.6-1.1,1.4-1.7,2.4-1.7c0.4,0,0.6,0,0.9,0.2l-0.3,1.2c-0.3-0.1-0.5-0.1-0.8-0.1
		c-0.7,0-1.5,0.5-2.1,1.9v5.3h-1.4V456.1z"/>
</g>
<path class="st5" d="M372.2,564.4v-52.8h-70.9v52.8 M350.2,516.7v8.9 M324.2,516.7v8.9 M328.5,516.7v8.9 M332.9,516.7v8.9
	 M337.2,516.7v8.9 M341.6,516.7v8.9 M345.9,516.7v8.9 M354.6,516.7v8.9 M358.9,516.7v8.9 M363.2,516.7v8.9 M328.7,546h15.7v-10.9
	h-15.7V546z M308.5,546h7.9v-10.9h-7.9V546z M355.4,546h7.9v-10.9h-7.9V546z M295,565.3h99.2 M351.6,535.2V546 M320.4,535.2V546
	 M320.4,552.7v10.9 M328,552.7v10.9 M335.7,552.7v10.9 M343.3,552.7v10.9 M303.2,552.7h48.3v10.9 M302,525.9h68.6 M324.2,516.7h39.2
	"/>
<rect x="299.4" y="507.3" class="st6" width="74.4" height="4.3"/>
<path class="st5" d="M299.4,511.6h74.4v-4.3h-74.4V511.6z M386,551.4v12.4 M385.5,551.5c4.2,0,7.6-3.4,7.6-7.6
	c0-4.2-3.4-7.6-7.6-7.6c-4.2,0-7.6,3.4-7.6,7.6C377.9,548.1,381.3,551.5,385.5,551.5z M583.3,437.7v-49.8h-44.2v49.8"/>
<rect x="575.6" y="392.8" class="st6" width="10.1" height="8.6"/>
<rect x="575.6" y="392.8" class="st5" width="10.1" height="8.6"/>
<rect x="575.6" y="406" class="st6" width="10.1" height="8.6"/>
<path class="st5" d="M575.6,414.6h10.1V406h-10.1V414.6z M546.6,437.7h6.1v-49.2h-6.1V437.7z M563.9,419.4h6.1v-6.1h-6.1V419.4z
	 M492,410.3h6.1v-6.1H492V410.3z M492,421.3h6.1v-6.1H492V421.3z M492,432.6h6.1v-6.1H492V432.6z M503,410.3h6.1v-6.1H503V410.3z
	 M503,421.3h6.1v-6.1H503V421.3z M503,432.6h6.1v-6.1H503V432.6z M514.3,410.3h6.1v-6.1h-6.1V410.3z M532,410.3h6.1v-6.1H532V410.3z
	 M514.3,421.3h6.1v-6.1h-6.1V421.3z M532,421.3h6.1v-6.1H532V421.3z M514.3,432.6h6.1v-6.1h-6.1V432.6z M532,432.6h6.1v-6.1H532
	V432.6z M577.4,437h5.5v-14.9h-5.5V437z M563.9,431h6.1v-6.1h-6.1V431z M469.9,438.3h119.3 M537.9,396.8h-46.3v40.8"/>
<rect x="537" y="383.8" class="st6" width="49.7" height="4.3"/>
<rect x="537" y="383.8" class="st5" width="49.7" height="4.3"/>
<rect x="489.2" y="392.5" class="st6" width="49.7" height="4.3"/>
<path class="st5" d="M489.2,396.8h49.7v-4.3h-49.7V396.8z M477.9,425.7v12.4 M477.4,425.8c4.2,0,7.6-3.4,7.6-7.6
	c0-4.2-3.4-7.6-7.6-7.6c-4.2,0-7.6,3.4-7.6,7.6C469.8,422.4,473.2,425.8,477.4,425.8z M575.2,539.7v-47.4h-57.8v47.4 M517.1,500.1
	h-13.6v39.7 M575.8,500.1h13.6v39.7 M507.9,510h5.6v-5.6h-5.6V510z M585,510h-5.6v-5.6h5.6V510z M507.9,519.5h5.6V514h-5.6V519.5z
	 M585,519.5h-5.6V514h5.6V519.5z M507.9,528.6h5.6v-5.6h-5.6V528.6z M585,528.6h-5.6v-5.6h5.6V528.6z M543.2,504h5.6v-5.6h-5.6V504z
	 M553.2,504h5.6v-5.6h-5.6V504z M563.3,504h5.6v-5.6h-5.6V504z M523.2,504h5.6v-5.6h-5.6V504z M533.2,504h5.6v-5.6h-5.6V504z
	 M543.2,514.6h5.6V509h-5.6V514.6z M553.2,514.6h5.6V509h-5.6V514.6z M563.3,514.6h5.6V509h-5.6V514.6z M523.2,514.6h5.6V509h-5.6
	V514.6z M533.2,514.6h5.6V509h-5.6V514.6z M543.2,539.8h5.6V520h-5.6V539.8z M553.2,525.6h5.6V520h-5.6V525.6z M563.3,525.6h5.6V520
	h-5.6V525.6z M523.2,525.6h5.6V520h-5.6V525.6z M533.2,525.6h5.6V520h-5.6V525.6z M501.2,540h90.6 M503.4,499.9l-6-3.9h18.8
	 M589.6,499.9l6.1-3.9h-18.8"/>
<polyline class="st6" points="142.8,178.2 142.8,183.9 190.1,183.9 190.2,191.9 142.7,191.9 142.7,220 149.2,220 "/>
<path class="st5" d="M142.8,178.2v5.7h47.3l0.1,8h-47.6V220h6.5 M145.1,233.1h44.3v-13h-44.3V233.1z M154.9,209.3h34.9v-7.4h-34.9
	V209.3z M189,177.5h-42.1"/>
<rect x="136.5" y="173.6" class="st6" width="64.2" height="3.9"/>
<path class="st5" d="M136.5,177.5h64.2v-3.9h-64.2V177.5z M119.4,233.1h94.6v-63.6h-23.8v3.4 M165.1,220.2v12.9 M176.7,220.2v12.9
	 M165.1,184.9v5.8 M176.7,184.9v5.8 M145.2,184.9v5.8 M165.1,202.7v5.8 M176.7,202.7v5.8 M126.7,218.2v13.2 M126.3,218.3
	c4.2,0,7.6-3.4,7.6-7.6c0-4.2-3.4-7.6-7.6-7.6c-4.2,0-7.6,3.4-7.6,7.6C118.6,214.9,122,218.3,126.3,218.3z M222.9,464.1v-47.4h-57.8
	v47.4 M223.5,416.8h13.6v47.3 M190.9,428.3h5.6v-5.6h-5.6V428.3z M200.9,428.3h5.6v-5.6h-5.6V428.3z M210.9,428.3h5.6v-5.6h-5.6
	V428.3z M170.9,428.3h5.6v-5.6h-5.6V428.3z M180.9,428.3h5.6v-5.6h-5.6V428.3z M190.9,438.9h5.6v-5.6h-5.6V438.9z M200.9,438.9h5.6
	v-5.6h-5.6V438.9z M210.9,438.9h5.6v-5.6h-5.6V438.9z M170.9,438.9h5.6v-5.6h-5.6V438.9z M180.9,438.9h5.6v-5.6h-5.6V438.9z
	 M190.9,449.9h5.6v-5.6h-5.6V449.9z M200.9,449.9h5.6v-5.6h-5.6V449.9z M210.9,449.9h5.6v-5.6h-5.6V449.9z M170.9,449.9h5.6v-5.6
	h-5.6V449.9z M180.9,449.9h5.6v-5.6h-5.6V449.9z M200.9,464.3h5.6v-9.4h-5.6V464.3z M210.9,464.3h5.6v-9.4h-5.6V464.3z M139.4,464.4
	h102 M223,428.9h13.3 M223,440.4h13.3 M223,451.9h13.3 M170.4,456h7.3 M184.2,456h7.3 M151.6,450.3v12.4 M151.1,450.4
	c4.2,0,7.6-3.4,7.6-7.6c0-4.2-3.4-7.6-7.6-7.6c-4.2,0-7.6,3.4-7.6,7.6C143.5,447,146.9,450.4,151.1,450.4z"/>
</svg>
