<?xml version="1.0" encoding="utf-8"?>
<!-- Generator: Adobe Illustrator 23.0.2, SVG Export Plug-In . SVG Version: 6.00 Build 0)  -->
<svg version="1.1" id="Layer_1" xmlns="http://www.w3.org/2000/svg" xmlns:xlink="http://www.w3.org/1999/xlink" x="0px" y="0px"
	 viewBox="0 0 690.3 635.1" style="enable-background:new 0 0 690.3 635.1;" xml:space="preserve">
<style type="text/css">
	.st0{fill:none;stroke:#F1F0F3;stroke-width:19.52;stroke-linecap:round;stroke-linejoin:round;stroke-miterlimit:10;}
	.st1{fill:none;stroke:#EAE9EE;stroke-width:2.44;stroke-linecap:round;stroke-linejoin:round;stroke-miterlimit:10;}
	.st2{fill:none;stroke:#F1F0F3;stroke-width:4.469;stroke-linecap:round;stroke-linejoin:round;stroke-miterlimit:10;}
	.st3{fill:none;}
	.st4{fill:#C0BDCE;}
	.st5{fill:none;stroke:#C0BDCE;stroke-width:2.135;stroke-linecap:round;stroke-linejoin:round;stroke-miterlimit:10;}
	.st6{fill:#FFFFFF;}
</style>
<polyline class="st0" points="306.2,-140.1 383.4,-14.5 386.9,40.9 406.5,63.9 460.7,96.2 475.6,122.7 543.7,122.7 580.6,205.7 
	715.4,316.4 "/>
<polyline class="st1" points="-18.9,312.9 317.7,209.2 441.1,178.1 510.2,141.2 506.8,106.6 520.6,88.1 505.8,65.7 377.7,-128.6 "/>
<polyline class="st1" points="521.2,88.2 562.1,112.4 594.4,166.5 658.9,224.2 680.8,243.8 720,279.5 "/>
<line class="st1" x1="694.1" y1="-182.4" x2="522.3" y2="88.5"/>
<line class="st1" x1="837" y1="320.2" x2="694.1" y2="-182.4"/>
<polyline class="st1" points="237.6,-127.1 151.2,-18.1 -20,57.9 38.2,184.8 69.9,288.7 165,566.7 409.8,480.2 468.6,379.5 
	837,320.2 "/>
<path class="st2" d="M111.1-140.8L225.2,35.6c0.2,0.4,0.4,0.7,0.5,1.1c18.6,61.4,37.1,122.8,55.7,184.2
	C369.7,331.1,538.9,540,627.2,650.2"/>
<path class="st2" d="M103.6-135.9c37.9,58.6,75.9,117.2,113.8,175.8c18.6,61.5,37.2,122.9,55.7,184.4c0.2,0.5,0.4,1.1,0.8,1.5
	l344.1,428"/>
<path class="st3" d="M15.9-111.8C7.1-111.8,0-104.7,0-95.9v603.2c0,8.8,7.1,15.9,15.9,15.9h658.4c8.8,0,15.9-7.1,15.9-15.9V-95.9
	c0-8.8-7.1-15.9-15.9-15.9H15.9z"/>
<g>
	<path class="st4" d="M138,135h1.5l1.2,6.1c0.2,1.2,0.4,2.4,0.7,3.6h0.1c0.2-1.2,0.5-2.4,0.8-3.6l1.6-6.1h1.3l1.6,6.1
		c0.3,1.2,0.5,2.4,0.8,3.6h0.1c0.2-1.2,0.4-2.4,0.6-3.6l1.2-6.1h1.4l-2.3,11.2h-1.7l-1.7-6.7c-0.2-0.9-0.4-1.7-0.5-2.6h-0.1
		c-0.2,0.9-0.4,1.7-0.6,2.6l-1.7,6.7h-1.7L138,135z"/>
	<path class="st4" d="M152.2,135.3c0-0.6,0.4-0.9,1-0.9c0.5,0,1,0.4,1,0.9s-0.4,0.9-1,0.9C152.6,136.2,152.2,135.8,152.2,135.3z
		 M152.4,137.9h1.4v8.3h-1.4V137.9z"/>
	<path class="st4" d="M154.6,149.7l0.3-1.1c0.2,0.1,0.5,0.1,0.8,0.1c0.8,0,1-0.6,1-1.6v-9.2h1.4v9.2c0,1.7-0.6,2.8-2.3,2.8
		C155.3,149.9,154.8,149.8,154.6,149.7z M156.4,135.3c0-0.6,0.4-0.9,1-0.9s1,0.4,1,0.9s-0.4,0.9-1,0.9S156.4,135.8,156.4,135.3z"/>
	<path class="st4" d="M160.2,142c0-2.8,1.9-4.4,4-4.4c1.1,0,1.8,0.4,2.4,1l-0.7,0.9c-0.5-0.4-1-0.7-1.6-0.7c-1.5,0-2.6,1.3-2.6,3.2
		s1,3.2,2.6,3.2c0.8,0,1.4-0.4,1.9-0.8l0.6,0.9c-0.7,0.7-1.7,1.1-2.7,1.1C161.9,146.4,160.2,144.8,160.2,142z"/>
	<path class="st4" d="M168.6,134h1.4v3.3l-0.1,1.7c0.8-0.7,1.6-1.4,2.8-1.4c1.7,0,2.5,1.1,2.5,3.2v5.3h-1.4V141
		c0-1.5-0.5-2.2-1.6-2.2c-0.8,0-1.4,0.4-2.3,1.3v6h-1.4V134H168.6z"/>
	<path class="st4" d="M177.3,142c0-2.7,1.8-4.4,3.7-4.4c2.1,0,3.3,1.5,3.3,3.9c0,0.3,0,0.6-0.1,0.8h-5.6c0.1,1.8,1.2,2.9,2.8,2.9
		c0.8,0,1.5-0.3,2.1-0.7l0.5,0.9c-0.7,0.5-1.6,0.9-2.7,0.9C179.1,146.4,177.3,144.8,177.3,142z M183.1,141.3c0-1.7-0.7-2.6-2-2.6
		c-1.2,0-2.2,0.9-2.4,2.6H183.1z"/>
	<path class="st4" d="M186.4,137.9h1.2l0.1,1.2l0,0c0.8-0.8,1.6-1.4,2.8-1.4c1.7,0,2.5,1.1,2.5,3.2v5.3h-1.4v-5.1
		c0-1.5-0.5-2.2-1.6-2.2c-0.8,0-1.4,0.4-2.3,1.3v6h-1.4L186.4,137.9L186.4,137.9z"/>
</g>
<g>
	<path class="st4" d="M525.8,442.3h1.5l1.8,6.1c0.4,1.3,0.7,2.4,1.1,3.7h0.1c0.4-1.3,0.7-2.4,1.1-3.7l1.8-6.1h1.5l-3.6,11.2h-1.7
		L525.8,442.3z"/>
</g>
<g>
	<path class="st4" d="M535.2,449.4c0-2.7,1.8-4.4,3.7-4.4c2.1,0,3.3,1.5,3.3,3.9c0,0.3,0,0.6-0.1,0.8h-5.6c0.1,1.8,1.2,2.9,2.8,2.9
		c0.8,0,1.5-0.3,2.1-0.7l0.5,0.9c-0.7,0.5-1.6,0.9-2.7,0.9C536.9,453.7,535.2,452.1,535.2,449.4z M541,448.7c0-1.7-0.7-2.6-2-2.6
		c-1.2,0-2.2,0.9-2.4,2.6H541z"/>
	<path class="st4" d="M544.2,445.2h1.2l0.1,1.2l0,0c0.8-0.8,1.6-1.4,2.8-1.4c1.7,0,2.5,1.1,2.5,3.2v5.3h-1.4v-5.1
		c0-1.5-0.5-2.2-1.6-2.2c-0.8,0-1.4,0.4-2.3,1.3v6h-1.4v-8.3H544.2z"/>
	<path class="st4" d="M553.6,451.8v-10.5h1.4v10.6c0,0.4,0.2,0.6,0.4,0.6c0.1,0,0.1,0,0.3,0l0.2,1.1c-0.2,0.1-0.4,0.1-0.8,0.1
		C554,453.7,553.6,453,553.6,451.8z"/>
	<path class="st4" d="M557.3,449.4c0-2.8,1.8-4.4,3.8-4.4s3.8,1.6,3.8,4.4c0,2.7-1.8,4.3-3.8,4.3S557.3,452.1,557.3,449.4z
		 M563.6,449.4c0-1.9-1-3.2-2.4-3.2s-2.4,1.3-2.4,3.2s1,3.2,2.4,3.2S563.6,451.3,563.6,449.4z"/>
</g>
<g>
	<path class="st4" d="M292.2,480.5h1.5l1.8,6.1c0.4,1.3,0.7,2.4,1.1,3.7h0.1c0.4-1.3,0.7-2.4,1.1-3.7l1.8-6.1h1.5l-3.6,11.2h-1.7
		L292.2,480.5z"/>
</g>
<g>
	<path class="st4" d="M301.6,487.5c0-2.7,1.8-4.4,3.7-4.4c2.1,0,3.3,1.5,3.3,3.9c0,0.3,0,0.6-0.1,0.8h-5.6c0.1,1.8,1.2,2.9,2.8,2.9
		c0.8,0,1.5-0.3,2.1-0.7l0.5,0.9c-0.7,0.5-1.6,0.9-2.7,0.9C303.3,491.9,301.6,490.3,301.6,487.5z M307.4,486.9c0-1.7-0.7-2.6-2-2.6
		c-1.2,0-2.2,0.9-2.4,2.6H307.4z"/>
	<path class="st4" d="M310.6,483.4h1.2l0.1,1.2l0,0c0.8-0.8,1.6-1.4,2.8-1.4c1.7,0,2.5,1.1,2.5,3.2v5.3h-1.4v-5.1
		c0-1.5-0.5-2.2-1.6-2.2c-0.8,0-1.4,0.4-2.3,1.3v6h-1.4L310.6,483.4L310.6,483.4z"/>
	<path class="st4" d="M320,483.4h1.2l0.1,1.5l0,0c0.6-1.1,1.4-1.7,2.4-1.7c0.4,0,0.6,0,0.9,0.2l-0.3,1.2c-0.3-0.1-0.5-0.1-0.8-0.1
		c-0.7,0-1.5,0.5-2.1,1.9v5.3H320L320,483.4L320,483.4z"/>
</g>
<g>
	<path class="st4" d="M325,489.5c0-1.8,1.6-2.7,5.1-3.1c0-1.1-0.4-2.1-1.7-2.1c-1,0-1.8,0.5-2.5,0.9l-0.5-1c0.8-0.5,1.9-1.1,3.3-1.1
		c2,0,2.9,1.3,2.9,3.4v5.1h-1.2l-0.1-1l0,0c-0.8,0.7-1.7,1.2-2.7,1.2C326,491.9,325,491,325,489.5z M330.1,489.6v-2.3
		c-2.8,0.3-3.7,1-3.7,2.1c0,0.9,0.6,1.3,1.5,1.3C328.6,490.7,329.3,490.4,330.1,489.6z"/>
	<path class="st4" d="M333.3,495.1l0.3-1.1c0.2,0.1,0.4,0.1,0.6,0.1c0.9,0,1.5-0.8,1.9-1.8l0.2-0.6l-3.3-8.3h1.4l1.7,4.6
		c0.3,0.7,0.5,1.6,0.8,2.3h0.1c0.2-0.8,0.5-1.6,0.7-2.3l1.5-4.6h1.4l-3.1,9c-0.6,1.6-1.4,2.9-3.1,2.9
		C333.9,495.2,333.5,495.2,333.3,495.1z"/>
</g>
<g>
	<path class="st4" d="M145.6,366.7h1.5l1.8,6.1c0.4,1.3,0.7,2.4,1.1,3.7h0.1c0.4-1.3,0.7-2.4,1.1-3.7l1.8-6.1h1.5l-3.6,11.2h-1.7
		L145.6,366.7z"/>
	<path class="st4" d="M155,373.7c0-2.7,1.8-4.4,3.7-4.4c2.1,0,3.3,1.5,3.3,3.9c0,0.3,0,0.6-0.1,0.8h-5.6c0.1,1.8,1.2,2.9,2.8,2.9
		c0.8,0,1.5-0.3,2.1-0.7l0.5,0.9c-0.7,0.5-1.6,0.9-2.7,0.9C156.7,378.1,155,376.4,155,373.7z M160.8,373c0-1.7-0.7-2.6-2-2.6
		c-1.2,0-2.2,0.9-2.4,2.6H160.8z"/>
</g>
<g>
	<path class="st4" d="M163.3,379.5c0-0.7,0.5-1.4,1.2-1.9v-0.1c-0.4-0.3-0.7-0.7-0.7-1.4c0-0.7,0.5-1.2,0.9-1.5v-0.1
		c-0.5-0.4-1.1-1.2-1.1-2.2c0-1.8,1.4-3,3.1-3c0.5,0,0.9,0.1,1.2,0.2h2.9v1.1h-1.7c0.4,0.4,0.7,1,0.7,1.7c0,1.8-1.3,2.9-3,2.9
		c-0.4,0-0.9-0.1-1.2-0.3c-0.3,0.3-0.5,0.5-0.5,1s0.3,0.9,1.5,0.9h1.6c1.9,0,2.9,0.6,2.9,2c0,1.5-1.6,2.9-4.2,2.9
		C164.7,381.7,163.3,380.9,163.3,379.5z M169.5,379c0-0.8-0.6-1-1.7-1h-1.4c-0.3,0-0.7,0-1.1-0.1c-0.6,0.4-0.8,0.9-0.8,1.4
		c0,0.9,0.9,1.5,2.4,1.5C168.5,380.7,169.5,379.9,169.5,379z M168.5,372.3c0-1.2-0.8-1.9-1.8-1.9s-1.8,0.7-1.8,1.9
		c0,1.2,0.8,2,1.8,2C167.7,374.3,168.5,373.5,168.5,372.3z"/>
	<path class="st4" d="M172.5,365.7h1.4v3.3l-0.1,1.7c0.8-0.7,1.6-1.4,2.8-1.4c1.7,0,2.5,1.1,2.5,3.2v5.3h-1.4v-5.1
		c0-1.5-0.5-2.2-1.6-2.2c-0.8,0-1.4,0.4-2.3,1.3v6h-1.4v-12.1H172.5z"/>
	<path class="st4" d="M181.2,373.7c0-2.7,1.8-4.4,3.7-4.4c2.1,0,3.3,1.5,3.3,3.9c0,0.3,0,0.6-0.1,0.8h-5.5c0.1,1.8,1.2,2.9,2.8,2.9
		c0.8,0,1.5-0.3,2.1-0.7l0.5,0.9c-0.7,0.5-1.6,0.9-2.7,0.9C183,378.1,181.2,376.4,181.2,373.7z M187,373c0-1.7-0.7-2.6-2-2.6
		c-1.2,0-2.2,0.9-2.4,2.6H187z"/>
	<path class="st4" d="M190.3,376.2v-10.5h1.4v10.6c0,0.4,0.2,0.6,0.4,0.6c0.1,0,0.1,0,0.3,0l0.2,1.1c-0.2,0.1-0.4,0.1-0.8,0.1
		C190.7,378.1,190.3,377.4,190.3,376.2z"/>
</g>
<g>
	<path class="st4" d="M498.8,341.4h3.3c2.3,0,3.9,0.8,3.9,2.7c0,1.1-0.6,2.1-1.6,2.4v0.1c1.3,0.3,2.3,1.1,2.3,2.7
		c0,2.2-1.7,3.3-4.2,3.3h-3.6L498.8,341.4L498.8,341.4z M501.9,346.2c1.9,0,2.7-0.7,2.7-1.8c0-1.3-0.9-1.8-2.6-1.8h-1.7v3.6
		L501.9,346.2L501.9,346.2z M502.2,351.5c1.9,0,3-0.7,3-2.2c0-1.4-1.1-2-3-2h-2v4.2H502.2z"/>
	<path class="st4" d="M508.1,348.5c0-2.8,1.8-4.4,3.8-4.4c2,0,3.8,1.6,3.8,4.4c0,2.7-1.8,4.3-3.8,4.3S508.1,351.2,508.1,348.5z
		 M514.3,348.5c0-1.9-1-3.2-2.4-3.2s-2.4,1.3-2.4,3.2c0,1.9,1,3.2,2.4,3.2S514.3,350.4,514.3,348.5z"/>
</g>
<g>
	<path class="st4" d="M519.2,348.3l-2.5-4h1.5l1.1,1.8c0.3,0.5,0.5,0.9,0.8,1.4h0.1c0.3-0.5,0.5-0.9,0.8-1.4l1-1.8h1.5l-2.5,4.1
		l2.7,4.2h-1.5l-1.2-1.9c-0.3-0.5-0.6-1-0.9-1.5H520c-0.3,0.5-0.6,1-0.8,1.5l-1.1,1.9h-1.5L519.2,348.3z"/>
	<path class="st4" d="M525.3,344.3h1.2l0.1,1.2l0,0c0.7-0.8,1.6-1.4,2.6-1.4c1.3,0,1.9,0.6,2.3,1.6c0.9-0.9,1.7-1.6,2.7-1.6
		c1.7,0,2.5,1.1,2.5,3.2v5.3h-1.4v-5.1c0-1.5-0.5-2.2-1.5-2.2c-0.6,0-1.3,0.4-2.1,1.3v6h-1.4v-5.1c0-1.5-0.5-2.2-1.5-2.2
		c-0.6,0-1.3,0.4-2.1,1.3v6h-1.4L525.3,344.3L525.3,344.3z"/>
	<path class="st4" d="M538.8,348.5c0-2.7,1.8-4.4,3.7-4.4c2.1,0,3.3,1.5,3.3,3.9c0,0.3,0,0.6-0.1,0.8h-5.6c0.1,1.8,1.2,2.9,2.8,2.9
		c0.8,0,1.5-0.3,2.1-0.7l0.5,0.9c-0.7,0.5-1.6,0.9-2.7,0.9C540.6,352.8,538.8,351.2,538.8,348.5z M544.6,347.8c0-1.7-0.7-2.6-2-2.6
		c-1.2,0-2.2,0.9-2.4,2.6H544.6z"/>
	<path class="st4" d="M547.3,348.5c0-2.7,1.8-4.4,3.7-4.4c2.1,0,3.3,1.5,3.3,3.9c0,0.3,0,0.6-0.1,0.8h-5.6c0.1,1.8,1.2,2.9,2.8,2.9
		c0.8,0,1.5-0.3,2.1-0.7l0.5,0.9c-0.7,0.5-1.6,0.9-2.7,0.9C549.1,352.8,547.3,351.2,547.3,348.5z M553.1,347.8c0-1.7-0.7-2.6-2-2.6
		c-1.2,0-2.2,0.9-2.4,2.6H553.1z"/>
	<path class="st4" d="M556.4,344.3h1.2l0.1,1.5l0,0c0.6-1.1,1.4-1.7,2.4-1.7c0.4,0,0.6,0,0.9,0.2l-0.3,1.2c-0.3-0.1-0.5-0.1-0.8-0.1
		c-0.7,0-1.5,0.5-2.1,1.9v5.3h-1.4L556.4,344.3L556.4,344.3z"/>
</g>
<path class="st5" d="M344,465.4v-52.8h-70.9v52.8 M322,417.7v8.9 M296,417.7v8.9 M300.3,417.7v8.9 M304.7,417.7v8.9 M309,417.7v8.9
	 M313.4,417.7v8.9 M317.7,417.7v8.9 M326.4,417.7v8.9 M330.7,417.7v8.9 M335,417.7v8.9 M300.5,447h15.7v-10.9h-15.7V447z M280.3,447
	h7.9v-10.9h-7.9V447z M327.2,447h7.9v-10.9h-7.9V447z M266.8,466.3H366 M323.4,436.2V447 M292.2,436.2V447 M292.2,453.7v10.9
	 M299.8,453.7v10.9 M307.5,453.7v10.9 M315.1,453.7v10.9 M275,453.7h48.3v10.9 M273.8,426.9h68.6 M296,417.7h39.2"/>
<rect x="271.2" y="408.3" class="st6" width="74.4" height="4.3"/>
<path class="st5" d="M271.2,412.6h74.4v-4.3h-74.4V412.6z M357.8,452.4v12.4 M357.3,452.5c4.2,0,7.6-3.4,7.6-7.6
	c0-4.2-3.4-7.6-7.6-7.6s-7.6,3.4-7.6,7.6S353.1,452.5,357.3,452.5z M583.3,325.9v-49.8h-44.2v49.8"/>
<rect x="575.6" y="281" class="st6" width="10.1" height="8.6"/>
<rect x="575.6" y="281" class="st5" width="10.1" height="8.6"/>
<rect x="575.6" y="294.2" class="st6" width="10.1" height="8.6"/>
<path class="st5" d="M575.6,302.8h10.1v-8.6h-10.1V302.8z M546.6,325.9h6.1v-49.2h-6.1V325.9z M563.9,307.6h6.1v-6.1h-6.1V307.6z
	 M492,298.5h6.1v-6.1H492V298.5z M492,309.5h6.1v-6.1H492V309.5z M492,320.8h6.1v-6.1H492V320.8z M503,298.5h6.1v-6.1H503V298.5z
	 M503,309.5h6.1v-6.1H503V309.5z M503,320.8h6.1v-6.1H503V320.8z M514.3,298.5h6.1v-6.1h-6.1V298.5z M532,298.5h6.1v-6.1H532V298.5z
	 M514.3,309.5h6.1v-6.1h-6.1V309.5z M532,309.5h6.1v-6.1H532V309.5z M514.3,320.8h6.1v-6.1h-6.1V320.8z M532,320.8h6.1v-6.1H532
	V320.8z M577.4,325.2h5.5v-14.9h-5.5V325.2z M563.9,319.2h6.1v-6.1h-6.1V319.2z M469.9,326.5h119.3 M537.9,285h-46.3v40.8"/>
<rect x="537" y="272" class="st6" width="49.7" height="4.3"/>
<rect x="537" y="272" class="st5" width="49.7" height="4.3"/>
<rect x="489.2" y="280.7" class="st6" width="49.7" height="4.3"/>
<path class="st5" d="M489.2,285h49.7v-4.3h-49.7V285z M477.9,313.9v12.4 M477.4,314c4.2,0,7.6-3.4,7.6-7.6s-3.4-7.6-7.6-7.6
	s-7.6,3.4-7.6,7.6S473.2,314,477.4,314z M575.2,427.9v-47.4h-57.8v47.4 M517.1,388.3h-13.6V428 M575.8,388.3h13.6V428 M507.9,398.2
	h5.6v-5.6h-5.6V398.2z M585,398.2h-5.6v-5.6h5.6V398.2z M507.9,407.7h5.6v-5.5h-5.6V407.7z M585,407.7h-5.6v-5.5h5.6V407.7z
	 M507.9,416.8h5.6v-5.6h-5.6V416.8z M585,416.8h-5.6v-5.6h5.6V416.8z M543.2,392.2h5.6v-5.6h-5.6V392.2z M553.2,392.2h5.6v-5.6h-5.6
	V392.2z M563.3,392.2h5.6v-5.6h-5.6V392.2z M523.2,392.2h5.6v-5.6h-5.6V392.2z M533.2,392.2h5.6v-5.6h-5.6V392.2z M543.2,402.8h5.6
	v-5.6h-5.6V402.8z M553.2,402.8h5.6v-5.6h-5.6V402.8z M563.3,402.8h5.6v-5.6h-5.6V402.8z M523.2,402.8h5.6v-5.6h-5.6V402.8z
	 M533.2,402.8h5.6v-5.6h-5.6V402.8z M543.2,428h5.6v-19.8h-5.6V428z M553.2,413.8h5.6v-5.6h-5.6V413.8z M563.3,413.8h5.6v-5.6h-5.6
	V413.8z M523.2,413.8h5.6v-5.6h-5.6V413.8z M533.2,413.8h5.6v-5.6h-5.6V413.8z M501.2,428.2h90.6 M503.4,388.1l-6-3.9h18.8
	 M589.6,388.1l6.1-3.9h-18.8"/>
<polyline class="st6" points="142.8,66.4 142.8,72.1 190.1,72.1 190.2,80.1 142.7,80.1 142.7,108.2 149.2,108.2 "/>
<path class="st5" d="M142.8,66.4v5.7h47.3l0.1,8h-47.6v28.1h6.5 M145.1,121.3h44.3v-13h-44.3V121.3z M154.9,97.5h34.9v-7.4h-34.9
	V97.5z M189,65.7h-42.1"/>
<rect x="136.5" y="61.8" class="st6" width="64.2" height="3.9"/>
<path class="st5" d="M136.5,65.7h64.2v-3.9h-64.2V65.7z M119.4,121.3H214V57.7h-23.8v3.4 M165.1,108.4v12.9 M176.7,108.4v12.9
	 M165.1,73.1v5.8 M176.7,73.1v5.8 M145.2,73.1v5.8 M165.1,90.9v5.8 M176.7,90.9v5.8 M126.7,106.4v13.2 M126.3,106.5
	c4.2,0,7.6-3.4,7.6-7.6c0-4.2-3.4-7.6-7.6-7.6c-4.2,0-7.6,3.4-7.6,7.6C118.6,103.1,122,106.5,126.3,106.5z M200.5,352.3v-47.4h-57.8
	v47.4 M201.1,305h13.6v47.3 M168.5,316.5h5.6v-5.6h-5.6V316.5z M178.5,316.5h5.6v-5.6h-5.6V316.5z M188.5,316.5h5.6v-5.6h-5.6V316.5
	z M148.5,316.5h5.6v-5.6h-5.6V316.5z M158.5,316.5h5.6v-5.6h-5.6V316.5z M168.5,327.1h5.6v-5.6h-5.6V327.1z M178.5,327.1h5.6v-5.6
	h-5.6V327.1z M188.5,327.1h5.6v-5.6h-5.6V327.1z M148.5,327.1h5.6v-5.6h-5.6V327.1z M158.5,327.1h5.6v-5.6h-5.6V327.1z M168.5,338.1
	h5.6v-5.6h-5.6V338.1z M178.5,338.1h5.6v-5.6h-5.6V338.1z M188.5,338.1h5.6v-5.6h-5.6V338.1z M148.5,338.1h5.6v-5.6h-5.6V338.1z
	 M158.5,338.1h5.6v-5.6h-5.6V338.1z M178.5,352.5h5.6v-9.4h-5.6V352.5z M188.5,352.5h5.6v-9.4h-5.6V352.5z M117,352.6h102
	 M200.6,317.1h13.3 M200.6,328.6h13.3 M200.6,340.1h13.3 M148,344.2h7.3 M161.8,344.2h7.3 M129.2,338.5v12.4 M128.7,338.6
	c4.2,0,7.6-3.4,7.6-7.6s-3.4-7.6-7.6-7.6c-4.2,0-7.6,3.4-7.6,7.6S124.5,338.6,128.7,338.6z"/>
</svg>
